<?xml version="1.0" encoding="UTF-8"?>
<!DOCTYPE svg PUBLIC "-//W3C//DTD SVG 1.1//EN" "http://www.w3.org/Graphics/SVG/1.1/DTD/svg11.dtd">
<!-- Creator: CorelDRAW 2017 -->
<svg xmlns="http://www.w3.org/2000/svg" xml:space="preserve" width="210mm" height="148.5mm" version="1.1" style="shape-rendering:geometricPrecision; text-rendering:geometricPrecision; image-rendering:optimizeQuality; fill-rule:evenodd; clip-rule:evenodd"
viewBox="0 0 21000 14850"
 xmlns:xlink="http://www.w3.org/1999/xlink">
 <defs>
  <style type="text/css">
   <![CDATA[
    .fil1 {fill:#1F1B20}
    .fil0 {fill:#1F1B20;fill-rule:nonzero}
   ]]>
  </style>
 </defs>
 <g id="Слой_x0020_1">
  <metadata id="CorelCorpID_0Corel-Layer"/>
  <g id="_2405045340384">
   <path class="fil0" d="M12792.22 3444.63c1353.8,56.63 2556.41,656.54 3406.3,1580.66 849.95,924.14 1347.33,2172.53 1290.72,3526.08 -56.62,1353.79 -656.54,2556.41 -1580.65,3406.31 -924.12,849.92 -2172.54,1347.3 -3526.08,1290.69 -102.97,-4.3 -204.74,-11.69 -305.23,-22.06 17.62,-44.24 29.87,-91.2 35.95,-140.02 91.14,9.08 182.8,15.59 274.88,19.44 1314.26,54.96 2526.41,-427.99 3423.69,-1253.22 897.32,-825.26 1479.83,-1992.73 1534.78,-3306.74 54.98,-1314.26 -427.97,-2526.4 -1253.23,-3423.7 -825.25,-897.31 -1992.73,-1479.81 -3306.73,-1534.77l5.6 -142.67zm-297.05 -3296.06l39.33 0.11 401.29 0.12c1141.51,48.53 2218.77,328.15 3188.49,791.82 957.96,458.06 1813.67,1110.27 2519.53,1881.63 3.29,3.6 -20.2,150.01 -1.77,200.77 -714.24,-812.12 -1589.91,-1480.65 -2579.3,-1953.72 -952.65,-455.52 -2011.1,-730.2 -3132.83,-777.84l-0.28 0c-0.93,-0.04 -201.4,-0.1 -395.13,-0.13l-39.33 -0.1 0 -142.66zm11.32 1073.98l376.48 0.03 2.8 0c903.71,37.85 1761.1,242.35 2543.71,582.57 660.17,287 1267.2,670.61 1803.94,1132.27 123.75,106.43 -107.28,-106.52 8.79,7.99l-100.14 101.82c-113.26,-111.73 120.7,103.89 0,0 -526.5,-453.13 -1122,-829.62 -1769.66,-1111.17 -766.82,-333.37 -1606.87,-533.74 -2492.25,-570.84l-373.67 -0.01 0 -142.66zm6107.88 3312.65c381.71,602.45 675.26,1265.3 863.29,1969.6 181.55,680.02 264.66,1398.85 233.67,2139.52l-142.65 -5.6c30.33,-725.59 -51.17,-1430.18 -229.19,-2097 -184.2,-689.95 -471.87,-1339.43 -845.97,-1929.88l120.85 -76.64zm-6083 -2201.63c1.69,0.06 -161.74,0.16 -4.38,0.22 160.05,0.07 320.12,0.14 321.75,0.2l0.27 0c1658.19,72.11 3130.83,808.84 4171.45,1942.23 1040.48,1133.26 1649.2,2663.08 1579.85,4321.62 -48.66,1163.57 -424.52,2236.09 -1035.09,3132.5 -476.15,699.04 -1095.13,1291.13 -1812.99,1735.81 -53.53,33.16 -172.04,-60.91 -51.2,-136.57 690.7,-432.41 1286.54,-1005.06 1746.14,-1679.81 596.07,-875.11 962.99,-1921.96 1010.48,-3057.54 67.72,-1619.27 -526.57,-3112.87 -1542.36,-4219.22 -1016.06,-1106.65 -2453.74,-1825.97 -4072.42,-1896.36 -7.31,-0.07 -161.61,-0.14 -315.88,-0.21 -159.91,-0.06 0.98,-0.16 -0.65,-0.21l5.03 -142.66z"/>
   <path class="fil0" d="M10127.3 3854.8l0 2585.16c0,230.55 -186.88,417.43 -417.43,417.43l-298.66 0 0 -4020.58 340.82 0c178.69,0 332.84,18.97 577.45,350l1614.2 2184.49 242 430.64 0 -2963.17 339.16 0c211.54,20.37 376.93,198.58 376.93,415.47 0,1200.52 0,2401.03 0,3601.55 -102.61,0 -205.23,0 -307.84,0 -129.04,0 -372.61,-22.5 -669.62,-427.74l-1627.92 -2221.16 -169.09 -352.09z"/>
   <path class="fil0" d="M7266.45 8679.64c120.07,0 228.78,-48.67 307.43,-127.32 78.66,-78.66 127.33,-187.36 127.33,-307.43 0,-120.07 -48.67,-228.78 -127.33,-307.44 -78.65,-78.65 -187.36,-127.32 -307.43,-127.32l-669.94 0 0 869.51 669.94 0zm-5445.57 -1224.39l1119.73 0 0 157.39c0,110.83 -89.84,200.66 -200.67,200.66l-919.06 0c-69.66,0 -132.7,28.22 -178.31,73.83 -45.61,45.62 -73.84,108.67 -73.84,178.32 0,69.63 28.23,132.69 73.84,178.3 45.61,45.61 108.66,73.83 178.31,73.83l688.55 0c168.47,0 321.03,68.32 431.45,178.74 110.42,110.43 178.74,262.98 178.74,431.45 0,168.47 -68.32,321.03 -178.74,431.45 -110.41,110.43 -262.98,178.74 -431.45,178.74l-1286.58 0 0 -157.38c0,-110.82 89.84,-200.66 200.66,-200.66l1085.92 0c69.65,0 132.7,-28.23 178.31,-73.84 45.61,-45.61 73.83,-108.67 73.83,-178.31 0,-69.65 -28.22,-132.69 -73.83,-178.3 -45.61,-45.61 -108.66,-73.84 -178.31,-73.84l-688.55 0c-168.47,0 -321.03,-68.31 -431.46,-178.74 -110.42,-110.4 -178.74,-262.97 -178.74,-431.44 0,-168.47 68.32,-321.03 178.74,-431.46 110.43,-110.42 262.98,-178.74 431.46,-178.74zm3960.92 -4.25l0 1898.39c0,110.83 -89.83,200.66 -200.66,200.66l-157.39 0 0 -1898.39c0,-110.83 89.84,-200.66 200.67,-200.66l157.38 0zm814.71 1586.68l0 311.71c0,110.83 -89.83,200.66 -200.66,200.66l-157.38 0 0 -2099.05 358.04 0 0 1.09 669.94 0 10.15 0 0.02 0.06c214.85,2.71 409.16,90.91 550.41,232.16 143.47,143.47 232.22,341.69 232.22,560.58 0,218.89 -88.75,417.1 -232.22,560.57 -46.4,46.4 -98.53,87.06 -155.22,120.87l393.16 623.72 -422.01 0 -324.05 -514.09c-17.34,1.13 -34.83,1.72 -52.46,1.72l-669.94 0zm-2180.12 -358.04c120.06,0 228.77,-48.67 307.43,-127.32 78.66,-78.66 127.32,-187.36 127.32,-307.43 0,-120.07 -48.66,-228.78 -127.32,-307.44 -78.66,-78.65 -187.37,-127.32 -307.43,-127.32l-669.94 0 0 869.51 669.94 0zm0 -1227.55c218.89,0 417.1,88.75 560.57,232.22 143.47,143.47 232.23,341.69 232.23,560.58 0,218.89 -88.76,417.1 -232.23,560.57 -143.47,143.47 -341.68,232.22 -560.57,232.22l-669.94 0 0 311.71c0,110.83 -89.83,200.66 -200.66,200.66l-157.39 0 0 -2097.96 318.55 0 39.5 0 669.94 0zm4542.84 0l1595.71 0 0 358.04 -618.83 0 0 1539.26c0,110.83 -89.84,200.66 -200.67,200.66l-157.38 0 0 -1739.92 -618.83 0 0 -358.04zm-241.6 -1.09l0 1898.39c0,110.83 -89.84,200.66 -200.67,200.66l-157.38 0 0 -1898.39c0,-110.83 89.83,-200.66 200.66,-200.66l157.39 0z"/>
   <path class="fil0" d="M12719.95 7724.71l2399.92 -4784.71 318.9 159.45 -2290.31 4566.15 4029.84 -3697.6 241.95 262.96 -4132.57 3791.88 5084.12 -1680.51 111.89 339.87 -5087.22 1681.52 5223.17 554.4 -37.75 355.25 -5317.48 -564.44 4012.17 2643.44 -197.2 297.89 -4018.08 -2647.41c150.44,-139.21 243.39,-339.28 240.03,-560.36 -5.35,-351.83 -252.86,-643.13 -581.38,-717.78zm290.87 1320.94l1679.61 3792.78 -327.26 144.06 -1679.38 -3792.2c121.8,-21.38 233.32,-72.12 327.03,-144.64zm-439.77 155.72l-741.62 3355.51 -348.26 -76.92 741.57 -3355.33c103.06,50.93 219.43,78.8 342.27,76.92l6.04 -0.18zm-476.02 -156.89l-2161.47 1761.51 -225.17 -276.93 2164.98 -1764.36c50.52,110.37 127.04,206.21 221.66,279.78z"/>
   <path class="fil0" d="M14777.47 14724.49c-306.16,-16.18 -576.49,-154.6 -765.99,-365.25 -189.55,-210.73 -298.72,-493.85 -282.58,-799.35 16.2,-306.15 154.6,-576.48 365.27,-765.97 210.7,-189.55 493.82,-298.72 799.32,-282.58 306.16,16.2 576.5,154.59 766,365.26 189.55,210.72 298.71,493.84 282.56,799.33 -16.2,306.17 -154.59,576.49 -365.26,765.99 -210.72,189.56 -493.84,298.72 -799.32,282.57zm-367.39 -723.99c98.11,109.07 237.45,180.71 394.68,189.02 157.89,8.34 304.29,-48.15 413.29,-146.2 109.09,-98.12 180.72,-237.45 189.03,-394.67 8.35,-157.91 -48.13,-304.3 -146.2,-413.31 -98.12,-109.09 -237.45,-180.72 -394.67,-189.03 -157.89,-8.33 -304.3,48.15 -413.31,146.21 -109.08,98.12 -180.72,237.44 -189.03,394.65 -8.34,157.9 48.15,304.31 146.21,413.33z"/>
   <path class="fil0" d="M11551.53 13855.49l-0.03 -1.05c-230.79,1.82 -440.84,-89.93 -593.98,-239.93 -153.13,-149.97 -249.06,-359.03 -251.48,-591.55l-1.06 -2.1 1.05 -0.02c-1.83,-230.79 89.92,-440.84 239.93,-594 149.97,-153.12 359.03,-249.07 591.57,-251.48l2.1 -1.06 0.02 1.05c230.79,-1.82 440.83,89.92 593.98,239.93 153.12,149.97 249.06,359.03 251.48,591.55l1.06 2.1 -1.05 0.04c1.81,230.78 -89.92,440.83 -239.93,593.98 -149.98,153.14 -359.03,249.06 -591.55,251.48l-2.11 1.06zm-0.03 -537.08l0.04 1.02c82.54,-1.44 157.4,-36.41 211.84,-92 54.41,-55.55 87.63,-132.08 86.76,-216.36l-1.05 -2.1 1.02 -0.04c-1.44,-82.54 -36.41,-157.4 -92,-211.84 -55.55,-54.41 -132.08,-87.63 -216.36,-86.76l-2.1 1.05 -0.02 -1.02c-82.56,1.43 -157.42,36.41 -211.86,92 -54.41,55.55 -87.64,132.09 -86.76,216.38l1.05 2.1 -1.02 0.02c1.44,82.54 36.41,157.4 92,211.84 55.55,54.41 132.08,87.63 216.36,86.77l2.1 -1.06z"/>
   <path class="fil0" d="M17862.18 4702.4c-304.26,3.77 -581.7,-115.84 -784.54,-312.59 -203.19,-197.1 -331.22,-472.41 -335.89,-779.16l-1.05 -3.14 1.02 -0.02c-3.75,-304.27 115.85,-581.71 312.59,-784.53 197.1,-203.19 472.41,-331.2 779.14,-335.88l3.14 -1.06 0.04 1.03c304.27,-3.76 581.71,115.85 784.53,312.58 203.19,197.1 331.2,472.41 335.88,779.14l1.06 3.15 -1.03 0.04c3.76,304.26 -115.85,581.71 -312.58,784.53 -197.1,203.19 -472.41,331.2 -779.14,335.88l-3.15 1.05 -0.02 -1.02zm-411.11 -696.52c105.18,102.03 249.49,163.93 407.96,161.52l3.15 -1.06 0.02 0.99c155.98,-3.23 296.71,-69.48 398.36,-174.27 102.01,-105.17 163.92,-249.48 161.51,-407.95l-1.05 -3.15 0.98 -0.04c-3.22,-155.98 -69.48,-296.7 -174.27,-398.36 -105.17,-102.01 -249.48,-163.92 -407.95,-161.51l-3.15 1.05 -0.04 -0.98c-155.97,3.22 -296.7,69.48 -398.35,174.27 -102.01,105.17 -163.93,249.48 -161.52,407.95l1.06 3.15 -0.99 0.02c3.22,155.99 69.49,296.72 174.28,398.37z"/>
   <path class="fil0" d="M19349.9 10308.59c-305.5,4.62 -584.18,-115.15 -787.7,-312.57 -203.18,-197.1 -331.22,-472.41 -335.88,-779.15 -4.65,-305.5 115.13,-584.18 312.55,-787.69 197.1,-203.19 472.41,-331.23 779.16,-335.89l3.15 -1.06 0.02 1.03c304.26,-3.76 581.7,115.85 784.52,312.58 203.19,197.11 331.21,472.41 335.88,779.13l1.06 3.15 -1.03 0.02c3.78,304.26 -115.83,581.7 -312.57,784.55 -197.11,203.19 -472.42,331.22 -779.16,335.9zm-414.26 -696.5c105.17,102.03 249.5,163.93 407.97,161.53 157.24,-2.4 299.19,-68.86 401.52,-174.37 102.02,-105.17 163.91,-249.49 161.51,-407.97l-1.06 -3.14 0.99 -0.02c-3.23,-155.98 -69.49,-296.7 -174.28,-398.35 -105.16,-102.01 -249.48,-163.92 -407.95,-161.52l-3.14 1.06 -0.02 -0.99c-156,3.22 -296.73,69.5 -398.38,174.29 -102.02,105.16 -163.92,249.49 -161.52,407.97 2.39,157.24 68.87,299.18 174.36,401.51z"/>
   <path class="fil0" d="M5869.41 3254.24l0 2048 0.01 0.01c0,284.23 115.19,541.54 301.41,727.77 186.23,186.22 443.54,301.42 727.77,301.42 284.23,0 541.55,-115.2 727.77,-301.42 186.23,-186.23 301.42,-443.54 301.42,-727.77l0 -2463.53 338.59 0c211.81,20.1 377.5,198.44 377.5,415.52l0 2048.01c0,481.91 -195.36,918.23 -511.21,1234.08 -315.83,315.83 -752.16,511.2 -1234.07,511.2 -481.9,0 -918.23,-195.37 -1234.08,-511.2 -315.83,-315.85 -511.19,-752.17 -511.19,-1234.08l-0.01 0 0 -2465.44 298.66 0c230.55,0 417.43,186.88 417.43,417.43z"/>
   <path class="fil0" d="M12571.12 9642.87c-328.09,4.98 -627.29,-123.59 -845.74,-335.5 -218.23,-211.68 -355.74,-507.11 -360.75,-836.02 -4.98,-328.1 123.6,-627.3 335.51,-845.75 211.7,-218.24 507.1,-355.74 836.02,-360.74 328.09,-4.98 627.3,123.6 845.75,335.51 218.24,211.7 355.74,507.1 360.74,836.02 4.98,328.09 -123.6,627.29 -335.51,845.74 -211.69,218.24 -507.11,355.74 -836.02,360.74zm-413.66 -780.23c104.57,101.44 248.01,162.99 405.46,160.6 156.62,-2.37 297.84,-68.39 399.49,-173.19 101.44,-104.57 163,-248 160.6,-405.46 -2.38,-156.63 -68.4,-297.85 -173.19,-399.49 -104.58,-101.44 -248.01,-162.99 -405.46,-160.6 -156.63,2.38 -297.85,68.39 -399.49,173.19 -101.44,104.57 -162.99,248 -160.6,405.46 2.38,156.63 68.39,297.85 173.19,399.49z"/>
   <path class="fil1" d="M9843.24 11177.66c-117.61,21.98 -234.56,-2.26 -331.01,-60.72 -103.74,-62.85 -183.42,-164.96 -214.44,-291.37l-5.59 -22.79 0 -3.84c-21.99,-117.6 2.25,-234.58 60.71,-331.03 62.78,-103.61 165.13,-183.31 292.09,-214.45l22.81 -5.59 3.18 0c117.59,-21.95 234.53,2.29 330.95,60.72 103.76,62.85 183.41,164.95 214.44,291.37l5.59 22.78 0 3.84c21.98,117.6 -2.26,234.58 -60.7,331.05 -62.79,103.61 -165.13,183.3 -292.09,214.43l-22.79 5.6 -3.15 0z"/>
   <path class="fil1" d="M17412.22 12239.22l-0.02 -0.68c-156.78,1.8 -299.76,-59.91 -404.3,-161.33 -104.81,-101.67 -170.84,-243.78 -173.26,-402.19l-0.7 -2.1 0.68 -0.02c-1.81,-156.79 59.89,-299.76 161.32,-404.33 101.68,-104.81 243.79,-170.86 402.22,-173.26 157.59,-2.4 301.39,59.44 406.41,161.31 104.81,101.67 170.87,243.78 173.27,402.2 2.4,157.6 -59.43,301.41 -161.3,406.43 -101.68,104.81 -243.79,170.86 -402.22,173.27l-2.1 0.7z"/>
   <path class="fil1" d="M18433.75 7084.56l-0.05 -0.68c-156.78,1.81 -299.74,-59.91 -404.29,-161.32 -104.8,-101.66 -170.83,-243.76 -173.26,-402.18l-0.7 -2.1 0.68 -0.06c-1.81,-156.75 59.9,-299.75 161.32,-404.29 101.66,-104.81 243.77,-170.85 402.2,-173.27l2.1 -0.7 0.02 0.68c156.78,-1.81 299.77,59.89 404.33,161.33 104.79,101.68 170.85,243.79 173.25,402.21l0.7 2.1 -0.68 0.02c1.8,156.78 -59.9,299.76 -161.33,404.3 -101.66,104.81 -243.77,170.84 -402.18,173.26l-2.11 0.7z"/>
   <path class="fil1" d="M15287.39 3591.34c-157.6,2.39 -301.39,-59.45 -406.41,-161.31 -104.81,-101.68 -170.87,-243.79 -173.27,-402.21 -2.39,-157.62 59.42,-301.4 161.31,-406.43 101.66,-104.8 243.78,-170.86 402.21,-173.26l2.1 -0.7 0.02 0.68c156.78,-1.8 299.76,59.9 404.3,161.33 104.81,101.66 170.84,243.77 173.26,402.18l0.7 2.1 -0.68 0.02c1.81,156.78 -59.88,299.77 -161.32,404.33 -101.66,104.81 -243.79,170.84 -402.22,173.27z"/>
   <path class="fil0" d="M3952.79 3548.59l-1608.53 0c-117.95,0 -224.72,47.8 -301.98,125.06 -77.25,77.25 -125.05,184.05 -125.05,301.97 0,117.94 47.79,224.72 125.04,301.98 77.26,77.26 184.04,125.06 301.99,125.06l1061.28 0 1.23 -2.5c339.44,0 648.78,140.11 871.24,362.6 222.48,222.47 360.09,529.81 360.09,869.25 0,339.43 -137.61,646.76 -360.09,869.24 -222.23,222.24 -529.15,359.78 -868.15,360.08l0 0.01 -1.09 0 -2082.63 0 0 -298.66c0,-230.55 186.88,-417.43 417.43,-417.43l1665.2 0c141.76,0 270.08,-57.45 362.94,-150.3 92.84,-92.86 150.3,-221.19 150.3,-362.94 0,-141.77 -57.45,-270.09 -150.3,-362.95 -85.03,-85.04 -201.52,-142.46 -329.39,-151.54l0 1.23 -1098.06 0 -76.57 0 0 -2.55c-285.12,-18.85 -541.71,-142.28 -731.72,-332.29 -206.87,-206.88 -334.84,-492.66 -334.84,-808.29 0,-315.61 127.97,-601.4 334.85,-808.28 206.87,-206.87 492.65,-334.84 808.28,-334.84l2025.96 0 0 298.66c0,230.55 -186.88,417.43 -417.43,417.43z"/>
   <path class="fil1" d="M12491.32 453.46c-60.25,0.92 -115.22,-22.72 -155.37,-61.67 -40.07,-38.87 -65.32,-93.19 -66.24,-153.76 -0.91,-60.25 22.72,-115.22 61.67,-155.37 38.86,-40.06 93.19,-65.32 153.76,-66.24l0.8 -0.27 0.01 0.26c59.94,-0.68 114.59,22.9 154.56,61.68 40.07,38.87 65.31,93.19 66.24,153.75l0.27 0.81 -0.26 0c0.69,59.94 -22.9,114.6 -61.68,154.57 -38.86,40.07 -93.19,65.32 -153.76,66.24z"/>
   <path class="fil1" d="M12502.64 1527.44c-60.26,0.92 -115.22,-22.72 -155.37,-61.66 -40.07,-38.87 -65.32,-93.2 -66.24,-153.76 -0.91,-60.26 22.71,-115.23 61.67,-155.38 38.86,-40.06 93.19,-65.32 153.76,-66.24l0.8 -0.26 0.01 0.26c59.93,-0.69 114.59,22.9 154.56,61.67 40.07,38.87 65.31,93.2 66.23,153.75l0.27 0.81 -0.26 0c0.69,59.94 -22.89,114.6 -61.67,154.58 -38.86,40.06 -93.2,65.31 -153.76,66.23z"/>
   <path class="fil1" d="M12525.01 2638.47c-60.26,0.91 -115.22,-22.73 -155.37,-61.67 -40.07,-38.87 -65.32,-93.2 -66.24,-153.76 -0.91,-60.26 22.71,-115.23 61.67,-155.38 38.86,-40.06 93.19,-65.32 153.75,-66.24l0.81 -0.26 0.01 0.26c59.93,-0.69 114.59,22.9 154.56,61.67 40.07,38.87 65.31,93.2 66.23,153.75l0.27 0.81 -0.26 0.01c0.69,59.93 -22.89,114.59 -61.67,154.57 -38.86,40.06 -93.2,65.31 -153.76,66.24z"/>
  </g>
 </g>
</svg>
