<?xml version="1.0" encoding="UTF-8"?>
<!DOCTYPE svg PUBLIC "-//W3C//DTD SVG 1.1//EN" "http://www.w3.org/Graphics/SVG/1.1/DTD/svg11.dtd">
<!-- Creator: CorelDRAW 2017 -->
<svg xmlns="http://www.w3.org/2000/svg" xml:space="preserve" width="1920px" height="1080px" version="1.1" style="shape-rendering:geometricPrecision; text-rendering:geometricPrecision; image-rendering:optimizeQuality; fill-rule:evenodd; clip-rule:evenodd"
viewBox="0 0 1920 1080"
 xmlns:xlink="http://www.w3.org/1999/xlink">
 <defs>
  <style type="text/css">
   <![CDATA[
    .fil0 {fill:#D9DADA;fill-rule:nonzero}
   ]]>
  </style>
 </defs>
 <g id="Слой_x0020_1">
  <metadata id="CorelCorpID_0Corel-Layer"/>
  <g id="_2369162605440">
   <g>
    <path class="fil0" d="M8.3 128.05c10.61,-31.35 43.11,-53.3 76.15,-51.99 30.26,0.34 58.34,19.98 70.64,47.34 99,-11.06 201.86,13.03 284.42,69.12 100.97,66.89 169.75,179.19 184.01,299.41 -15.74,-0.55 -32.6,1.87 -44.9,12.58 -19.09,15.2 -25.36,44.28 -12.95,65.58 10.44,20.88 35.08,30.53 57.54,28.25 -10.96,82.63 -46.27,161.99 -101.58,224.46 -68.61,78.47 -167.26,130.02 -271.02,140.53 -3.17,19.64 -11.16,39.07 -26.56,52.3 -26.3,24.88 -70.02,26.81 -99.04,5.48 -27.46,-19.26 -39.73,-56.92 -28.81,-88.66 8.79,-28.19 34.81,-50.1 64.17,-53.58 33.7,-5.31 69.15,14.33 82.73,45.59 3.62,6.44 3.27,15.19 8.2,20.71 69.99,-8.34 137.84,-34.91 194.24,-77.26 81.57,-60.1 138.7,-152.27 156.14,-252.1 -31.36,-4.72 -56.24,-31.15 -60.69,-62.26 -59.99,-2.42 -119.88,-6.52 -179.87,-8.96 -0.41,37.14 -11.85,74.46 -35.32,103.61 -29.94,38.8 -78.6,62.86 -127.74,62.03 -45.03,0.96 -89.79,-18.95 -120.19,-52.03 -32.25,-34.53 -48.27,-83.67 -42,-130.57 4.72,-43.21 28.39,-83.63 62.92,-109.82 40.25,-31.22 95.55,-41.28 144.35,-26.91 60.95,16.99 108.4,72.43 116.26,135.22 60.64,3.1 121.29,6.68 181.97,9.3 4.66,-30.98 30.12,-56.48 61.1,-61.09 -14.65,-84.15 -56.65,-163.44 -118.61,-222.33 -84.28,-82.32 -206.23,-123.88 -323.29,-110.68 7.41,40.87 -21.71,84.15 -62.85,91.07 -27.98,5.76 -58.65,-5.1 -76.39,-27.49 -17.44,-20.96 -22.61,-51.31 -13.03,-76.85zm60.85 -35.8l0 0c-32.59,6.34 -56.75,41.14 -49.75,73.91 5.2,34.05 41.48,59.27 75.22,51.86 34.29,-6.09 59.2,-43.17 50.34,-77.18 -6.68,-33.12 -42.83,-56.69 -75.81,-48.59zm99.45 313.37l0 0c-40.69,8.13 -76.91,35.04 -97.21,71.12 -14.88,26.84 -21.84,58.47 -17.4,89 5.03,41.66 29.5,80.53 64.92,103.07 30.91,20.78 70.19,27.91 106.65,20.74 38.73,-7.41 73.64,-31.77 94.59,-65.09 17.61,-27.53 25.26,-61.27 21.33,-93.69 -4.62,-40.94 -27.84,-79.26 -61.92,-102.41 -31.81,-22.26 -72.95,-30.98 -110.96,-22.74zm-13.68 489.34l0 0c-32.7,7.99 -55.23,44.59 -45.9,77.29 7.69,34.36 47.07,57.68 80.77,46.07 32.12,-8.99 52.9,-45.76 43.32,-77.87 -8.13,-32.98 -45.31,-55.28 -78.19,-45.49z"/>
   </g>
   <g>
    <path class="fil0" d="M1193.05 141.32c-5.61,-29.29 23.47,-57.75 52.66,-51.34 28.84,3.58 46.17,38.52 32.97,64.05 -5.82,14.37 -20.09,21.95 -34.11,26.37 0.62,35.73 -0.07,71.43 0.34,107.16 18.44,4.86 34.08,18.71 38.08,37.87 56.34,12.13 106.44,48.07 137.52,96.42 15.78,23.56 25.3,50.62 32.43,77.91 17.88,5.37 32.63,19.12 36.21,37.97 51,0.21 102,0.1 153,0.03 4.31,-5.2 9.48,-9.58 15.33,-12.95 0.04,-13.65 -0.2,-27.29 0.18,-40.91 -18.89,-3.78 -34.12,-18.67 -38.5,-37.42 -14.81,0.04 -29.66,0.18 -44.48,-0.17 -5.51,10.17 -17.3,18.47 -29.12,13.37 -15.85,-4.58 -19.36,-28.6 -5.79,-37.8 11.44,-9.41 28.57,-3 34.12,9.92 15.02,0.14 30.05,0.04 45.1,0.11 3.45,-19.78 19.44,-34.08 38.22,-39.35 0.69,-12.34 0.2,-24.71 0.07,-37.01 -9.55,-5.69 -17.82,-16.2 -13.86,-27.95 3.9,-15.92 26.78,-21.02 37.15,-8.44 10.72,11.27 4.65,29.6 -8.37,36.08 -0.18,12.64 -0.14,25.32 -0.11,38 19.02,4.21 34.26,19.47 37.67,38.77 14.64,-0.24 29.25,-0.17 43.9,-0.03 3.55,-5.24 6.37,-11.72 12.54,-14.44 11.51,-6.79 28.46,-0.79 32.63,12.06 5.34,12.2 -2.69,28.36 -15.99,30.87 -11.47,3.66 -22.5,-4.37 -28.05,-13.85 -14.98,-0.17 -29.97,-0.07 -44.96,-0.14 -4.83,18.4 -19.06,33.08 -37.77,37.39 0.03,13.89 0.07,27.77 -0.1,41.7 4.03,3.92 7.92,7.99 11.78,12.16 48.31,0.07 96.62,0.38 144.93,-0.14 3.9,-20.67 22.47,-37.83 43.9,-37.7 25.54,-1.37 48.93,22.68 46.01,48.25 -0.28,27.56 -30.36,48.79 -56.55,40.83 -17.58,-3.76 -29.74,-19.44 -33.43,-36.42 -47.79,-0.28 -95.58,0.03 -143.38,-0.14 -3.17,6.03 -7.61,11.23 -13.09,15.3 -0.07,12.54 0,25.12 -0.17,37.7 18.5,4.58 33.45,18.81 37.87,37.56 14.78,-0.04 29.56,-0.18 44.34,0.1 5.55,-13.75 23.06,-21.85 36.15,-12.92 15.51,9.37 12.75,36.08 -4.93,41.24 -12.26,5.24 -24.88,-2.89 -30.46,-13.75 -15.06,-0.17 -30.11,0.04 -45.14,-0.17 -3.51,19.3 -18.78,34.25 -37.66,38.73 -0.07,12.48 -0.14,24.95 0.07,37.46 8.65,6.34 16.26,16.89 11.68,28.05 -4.83,17.02 -30.98,19.81 -39.32,4.13 -7.92,-12.68 0.35,-28.15 12.99,-33.63 -0.27,-11.85 0.35,-23.67 -0.31,-35.46 -18.67,-5.23 -34.8,-19.33 -38.08,-39.17 -15.22,0 -30.42,-0.11 -45.62,0.13 -5.27,9.96 -16.09,17.85 -27.84,13.75 -18.33,-3.99 -20.5,-33.25 -3.31,-40.28 12.06,-6.58 25.12,1.28 31.63,11.82 15.06,-0.1 30.12,-0.1 45.21,-0.03 4.21,-18.96 19.47,-33.64 38.36,-37.63 -0.18,-12.2 -0.04,-24.37 -0.21,-36.53 -7.24,-3.51 -12.61,-9.44 -16.51,-16.37 -50.58,0.07 -101.16,-0.1 -151.75,0.11 -3.41,18.4 -17.78,32.66 -35.53,37.66 -11.06,58.68 -45.28,113.09 -94.93,146.62 -22.95,15.68 -48.9,26.71 -75.98,32.91 -4.45,18.16 -19.5,32.63 -37.91,36.11 0.04,36.04 0.07,72.09 0,108.13 20.71,4 38.6,22.4 38.05,44.14 1.82,21.95 -15.75,42.42 -37.15,45.76 -23.19,4.86 -48,-11.92 -52.03,-35.25 -6.38,-24.46 11.99,-50.07 36.49,-54.13 0.1,-36.25 -0.04,-72.5 0.07,-108.72 -18.23,-3.93 -32.77,-18.02 -37.29,-36.11 -59.68,-12.89 -112.67,-52.27 -143,-105.2 -13.33,-22.06 -21.67,-46.69 -27.39,-71.71 -19.64,-3.62 -35.36,-19.71 -38.67,-39.35 -49.27,-0.1 -98.51,-0.31 -147.75,0.1 -3.9,5.17 -8.38,9.79 -13.41,13.85 0,12.48 0.04,24.95 -0.07,37.43 18.92,3.75 33.74,18.67 38.18,37.32 15.27,-0.07 30.53,0 45.8,-0.04 6.51,-12.82 23.22,-20.81 35.91,-11.41 16.6,9.55 11.75,38.12 -7.03,41.6 -12.69,4.34 -23.89,-4.97 -29.26,-15.68 -15.09,0.17 -30.19,0.13 -45.24,0 -3.83,19.22 -18.75,35.11 -38.25,38.66 -0.11,12.44 -0.07,24.88 0,37.32 11.54,6.3 17.88,21.47 9.99,33.18 -8.58,14.58 -33.15,12.16 -38.46,-4 -5.78,-11.88 2.73,-24.53 13.62,-29.46 0.2,-12.26 0.17,-24.53 0.2,-36.77 -18.85,-4.61 -34.25,-19.36 -37.76,-38.73 -15.27,-0.17 -30.5,-0.2 -45.7,0.07 -5.61,13.54 -23.67,19.61 -35.35,9.79 -13.54,-10.13 -8.31,-34.74 8.51,-37.87 11.23,-3.41 21.54,4.03 27.02,13.3 15.19,0 30.42,0 45.65,0 4.17,-18.61 18.82,-33.29 37.53,-37.11 -0.1,-12.17 0.55,-24.36 -0.14,-36.53 -5.44,-4.72 -10.89,-9.44 -15.23,-15.19 -45.69,0.17 -91.38,0.07 -137.08,0.03 -3.99,20.71 -22.15,38.7 -43.96,38.18 -26.5,2.1 -50.07,-23.85 -46.28,-49.97 1.72,-25.29 28.01,-44.76 52.72,-39.79 18.99,2.72 33.49,18.81 37.59,37.04 45.59,-0.04 91.18,-0.17 136.77,0.03 4.34,-5.44 9.23,-10.51 15.4,-13.88 0.45,-14.13 0.38,-28.23 0.11,-42.32 -18.54,-3.65 -33.5,-18.3 -37.29,-36.87 -14.92,-0.1 -29.87,-0.07 -44.79,-0.03 -5.86,11.64 -20.95,19.36 -32.81,11.37 -15.37,-8 -13.4,-33.12 2.9,-38.8 11.81,-5.24 24.01,2.2 29.6,12.71 14.98,0.11 29.97,0.14 44.93,-0.07 3.17,-19.43 18.71,-34.39 37.63,-38.62 0,-12.82 0.1,-25.64 -0.24,-38.42 -13.17,-5.62 -18.99,-24.44 -8.51,-35.15 9.57,-11.89 30.97,-9.07 36.24,5.61 5.86,11.86 -2.1,24.54 -12.78,30.05 -0.14,12.54 0,25.12 -0.31,37.67 19.3,4.2 34.91,19.43 38.39,39.04 14.75,-0.11 29.53,0.2 44.31,-0.38 5.24,-17.58 30.64,-22.09 41.32,-7.2 11.37,13.85 0.38,37.52 -17.75,36.97 -10.82,1.58 -17.88,-7.38 -24.15,-14.47 -14.61,-0.9 -29.26,0.03 -43.87,-0.49 -4.17,18.65 -18.92,33.67 -37.9,37.12 -0.18,14.19 -0.18,28.42 0.06,42.62 5.04,3.83 9.34,8.44 13.3,13.41 49.38,0.13 98.76,0 148.14,0.1 4.03,-19.23 20.06,-32.12 38.29,-37.11 10.71,-50.28 37.42,-97.52 77.29,-130.36 26.53,-22.57 58.71,-38.28 92.72,-45.76 4.17,-18.64 19.03,-33.22 37.53,-37.66 0.03,-35.98 0.03,-71.99 0,-108 -18.4,-4.48 -35.04,-18.88 -37.08,-38.52zm-148.58 362.67l0 0c15.81,7.65 29.8,22.4 29.8,40.91 2,20.47 -12.26,38.21 -29.97,46.59 15.88,74.29 74.6,138.69 149.37,155.99 7.34,-19.57 27.02,-34.7 48.55,-32.01 18.68,1.24 33.29,15.57 40.05,32.28 74.87,-18.36 135.42,-83.04 148.99,-158.85 -20.02,-6 -34.66,-26.36 -32.32,-47.42 0.83,-18.6 14.92,-33.73 31.7,-40.17 -16.05,-73.68 -75.08,-136.77 -149.06,-153.93 -7.38,18.58 -25.95,33.22 -46.59,31.05 -18.82,-0.31 -34.15,-14.23 -40.87,-31.05 -74.88,17.33 -134.52,81.77 -149.65,156.61z"/>
   </g>
   <path class="fil0" d="M67.74 104.38c31.43,-11.23 69.19,13.89 69.26,47.69 3.1,30.57 -25.43,58.79 -55.92,55.82 -29.53,-0.69 -53.97,-29.84 -49.66,-59.06 1.97,-20.36 17.03,-38.11 36.32,-44.45z"/>
   <path class="fil0" d="M174.22 424.95c33.8,-7.03 70.47,0.45 98.48,20.67 32.67,23.02 53.17,62.65 52.14,102.72 0.45,37.36 -17.85,73.92 -46.9,97.14 -40.73,33.05 -102.65,36.18 -146.28,6.93 -41.42,-26.19 -63.99,-78.22 -55.03,-126.4 7.96,-49.55 48.45,-91.24 97.59,-101.06z"/>
   <path class="fil0" d="M1219.69 447.48c33.46,-6.1 69.57,5.62 92.59,30.77 27.5,29.05 35.04,74.74 18.23,111.1 -15.06,34.39 -50.8,58.48 -88.32,59.65 -21.12,0.89 -42.42,-5 -60.1,-16.54 -33.35,-21.16 -51.58,-63.3 -44.38,-102.14 6.27,-41.28 40.94,-75.91 81.98,-82.84z"/>
   <path class="fil0" d="M431.69 485.01c16.2,0.93 32.39,2 48.62,2.82 -0.2,2.86 -0.55,8.58 -0.75,11.44 -16.03,-1.2 -32.05,-2.13 -48.07,-2.92 0.03,-2.83 0.13,-8.52 0.2,-11.34z"/>
   <path class="fil0" d="M433.38 507.75c15.85,0.17 31.67,1.65 47.48,2.76 -0.1,2.79 -0.27,8.37 -0.37,11.16 -16.58,-1.2 -33.15,-2.03 -49.73,-3.2 0.66,-2.69 1.97,-8.03 2.62,-10.72z"/>
   <path class="fil0" d="M429.83 555.72c16.27,0.86 32.53,1.75 48.8,2.93 -0.18,2.79 -0.45,8.44 -0.63,11.26 -16.02,-1.2 -32.08,-2.17 -48.17,-2.96 0,-3.76 0,-7.51 0,-11.23z"/>
   <path class="fil0" d="M429.45 589.18c0.55,-3.76 1.14,-7.48 1.73,-11.2 15.88,1 31.8,1.89 47.72,3.1 0,2.79 0.03,8.37 0.03,11.16 -16.5,-1.03 -32.97,-2.1 -49.48,-3.06z"/>
   <path class="fil0" d="M161.81 905.06c32.05,-8 66.4,20.05 63.99,53.2 0.86,31.74 -31.77,57.62 -62.5,51 -28.43,-4.55 -49.07,-34.94 -42.32,-63.03 3.69,-20.26 20.74,-37.11 40.83,-41.17z"/>
  </g>
 </g>
</svg>
