<svg xmlns="http://www.w3.org/2000/svg" viewBox="0 0 1527.89 955.28"><defs><style>.cls-1{fill:#70b7ff;}.cls-1,.cls-10,.cls-11,.cls-12,.cls-13,.cls-14,.cls-15,.cls-16,.cls-17,.cls-18,.cls-19,.cls-2,.cls-20,.cls-21,.cls-22,.cls-23,.cls-24,.cls-25,.cls-26,.cls-27,.cls-28,.cls-3,.cls-4,.cls-5,.cls-6,.cls-7,.cls-8,.cls-9{fill-opacity:0.5;}.cls-2{fill:#ff5034;}.cls-3{fill:#ff2f4a;}.cls-4{fill:#ffd5ff;}.cls-5{fill:#000034;}.cls-6{fill:#00249d;}.cls-7{fill:#ffb973;}.cls-8{fill:#0067d7;}.cls-9{fill:#0076e5;}.cls-10{fill:#ff9364;}.cls-11{fill:#ff7083;}.cls-12{fill:#ffa0e9;}.cls-13{fill:#ff2836;}.cls-14{fill:#ffc76f;}.cls-15{fill:#ff4848;}.cls-16{fill:#000047;}.cls-17{fill:#77004a;}.cls-18{fill:#0129af;}.cls-19{fill:#864a9b;}.cls-20{fill:#001791;}.cls-21{fill:#3c55e9;}.cls-22{fill:#58024f;}.cls-23{fill:#e054d5;}.cls-24{fill:#ffedda;}.cls-25{fill:#000040;}.cls-26{fill:#33005c;}.cls-27{fill:#ff4b58;}.cls-28{fill:#ff7b4c;}.cls-29{fill:#1f1b20;}</style></defs><title>favicon</title><g id="Слой_2" data-name="Слой 2"><g id="Слой_1-2" data-name="Слой 1"><ellipse class="cls-1" cx="835.89" cy="493.75" rx="210" ry="163" transform="translate(-115.21 299.04) rotate(-19)"/><ellipse class="cls-2" cx="517.89" cy="330.75" rx="371" ry="251" transform="translate(-61.59 535.23) rotate(-52)"/><ellipse class="cls-3" cx="532.89" cy="640.75" rx="64" ry="101"/><ellipse class="cls-4" cx="887.89" cy="571.75" rx="89" ry="74" transform="translate(-42.63 1071.13) rotate(-61)"/><ellipse class="cls-5" cx="1026.89" cy="761.75" rx="501" ry="139"/><ellipse class="cls-6" cx="1120.89" cy="435.75" rx="185" ry="286" transform="translate(-47.22 721.72) rotate(-35)"/><ellipse class="cls-7" cx="666.89" cy="362.75" rx="188" ry="84" transform="translate(5.87 736.08) rotate(-58)"/><ellipse class="cls-8" cx="989.89" cy="433.75" rx="79" ry="202" transform="translate(488.15 1390.97) rotate(-86)"/><ellipse class="cls-9" cx="749.89" cy="495.75" rx="78" ry="98" transform="translate(-139.25 363.37) rotate(-25)"/><ellipse class="cls-10" cx="644.89" cy="556.75" rx="25" ry="75" transform="translate(-202.71 470.58) rotate(-35)"/><ellipse class="cls-5" cx="339.89" cy="778.75" rx="83" ry="373" transform="translate(-509.54 757.68) rotate(-65)"/><ellipse class="cls-11" cx="801.89" cy="318.75" rx="90" ry="54" transform="translate(250.95 982.9) rotate(-72)"/><ellipse class="cls-12" cx="886.89" cy="574.75" rx="113" ry="78" transform="translate(-128.73 867.03) rotate(-49)"/><ellipse class="cls-13" cx="395.89" cy="452.75" rx="225" ry="149" transform="translate(-37.95 36.23) rotate(-5)"/><ellipse class="cls-14" cx="671.89" cy="320.75" rx="92" ry="48" transform="matrix(0.75, -0.66, 0.66, 0.75, -45.62, 519.48)"/><ellipse class="cls-15" cx="395.89" cy="477.75" rx="118" ry="177" transform="translate(-223.31 517.22) rotate(-54)"/><ellipse class="cls-16" cx="991.89" cy="756.75" rx="539" ry="137" transform="translate(-170.16 302.72) rotate(-16)"/><ellipse class="cls-17" cx="431.89" cy="287.75" rx="70" ry="149" transform="translate(-60.75 450.93) rotate(-52)"/><ellipse class="cls-18" cx="803.89" cy="679.75" rx="38" ry="199" transform="translate(18.88 1381.22) rotate(-82)"/><ellipse class="cls-19" cx="695.89" cy="404.75" rx="49" ry="29" transform="translate(-99.63 528.14) rotate(-39)"/><ellipse class="cls-20" cx="1116.89" cy="518.75" rx="280" ry="59" transform="translate(-53.73 901.08) rotate(-43)"/><ellipse class="cls-21" cx="975.89" cy="543.75" rx="71" ry="25" transform="translate(349.16 1468.54) rotate(-85)"/><ellipse class="cls-22" cx="479.89" cy="297.75" rx="27" ry="82" transform="translate(-84.58 279.84) rotate(-30)"/><ellipse class="cls-23" cx="840.89" cy="632.75" rx="32" ry="102" transform="translate(110.39 1390.26) rotate(-83)"/><ellipse class="cls-24" cx="886.89" cy="576.75" rx="53" ry="60" transform="translate(-9.93 15.57) rotate(-1)"/><ellipse class="cls-25" cx="345.89" cy="791.75" rx="63" ry="124" transform="matrix(0.1, -0.99, 0.99, 0.1, -477.67, 1052.99)"/><ellipse class="cls-26" cx="488.68" cy="513.82" rx="16" ry="70" transform="translate(-219.77 483.68) rotate(-44)"/><ellipse class="cls-27" cx="496.89" cy="597.75" rx="42" ry="116" transform="translate(-280.22 580.6) rotate(-49)"/><ellipse class="cls-28" cx="419.89" cy="462.75" rx="79" ry="51" transform="translate(-93.33 106.32) rotate(-13)"/><g id="Слой_1-3" data-name="Слой_1"><g id="_2405045340384" data-name=" 2405045340384"><path class="cls-29" d="M649.82,151.5c47.69,2.11,90.05,24.45,120,58.87s47.46,80.92,45.47,131.33-23.13,95.22-55.68,126.87-76.53,50.18-124.21,48.07q-5.44-.24-10.75-.82a22.14,22.14,0,0,0,1.27-5.22q4.82.51,9.68.72c46.3,2,89-15.94,120.61-46.68s52.13-74.22,54.07-123.16S795.18,247.4,766.11,214s-70.2-55.12-116.49-57.16l.2-5.31ZM639.36,28.73h15.52A275.61,275.61,0,0,1,767.2,58.23c33.75,17.06,63.89,41.35,88.75,70.08.12.13-.71,5.59-.06,7.48A286.79,286.79,0,0,0,765,63a270.76,270.76,0,0,0-110.36-29H639.36V28.73Zm.4,40h13.36a239.31,239.31,0,0,1,89.61,21.7,249.26,249.26,0,0,1,63.55,42.17c4.36,4-3.78-4,.31.3l-3.53,3.79c-4-4.16,4.25,3.87,0,0a244.3,244.3,0,0,0-62.34-41.39A234.47,234.47,0,0,0,652.92,74H639.76V68.73ZM854.92,192.12a272.5,272.5,0,0,1,30.41,73.36,280,280,0,0,1,8.23,79.69l-5-.21a274.46,274.46,0,0,0-8.07-78.11A267,267,0,0,0,850.66,195l4.26-2.85Zm-214.28-82c.06,0-5.7,0-.15,0h11.34c58.41,2.69,110.29,30.13,146.95,72.34s58.1,99.19,55.65,161A231.83,231.83,0,0,1,818,460.11a218.88,218.88,0,0,1-63.87,64.65c-1.89,1.24-6.06-2.27-1.8-5.09a213.76,213.76,0,0,0,61.51-62.57,226.28,226.28,0,0,0,35.6-113.88c2.39-60.31-18.55-115.94-54.33-157.15s-86.44-68-143.46-70.63H640.48c-5.63,0,0,0,0,0Z"/><path class="cls-29" d="M555.95,166.78v96.29c0,8.59-6.58,15.55-14.7,15.55H530.72V128.86h12c6.29,0,11.72.71,20.34,13l56.86,81.36,8.52,16V128.93h11.95c7.45.76,13.28,7.4,13.28,15.47V278.55H642.84c-4.55,0-13.13-.84-23.59-15.93L561.9,179.89l-6-13.11Z"/><path class="cls-29" d="M455.17,346.49A14.87,14.87,0,0,0,466,341.74a16.86,16.86,0,0,0,0-22.9,14.87,14.87,0,0,0-10.83-4.74h-23.6v32.39Zm-191.83-45.6h39.44v5.86a7.28,7.28,0,0,1-7.07,7.47H263.34a8.62,8.62,0,0,0-6.28,2.75,9.78,9.78,0,0,0,0,13.28,8.62,8.62,0,0,0,6.28,2.75H287.6a20.86,20.86,0,0,1,15.2,6.66,23.66,23.66,0,0,1,0,32.14,20.86,20.86,0,0,1-15.2,6.66H242.27v-5.86a7.28,7.28,0,0,1,7.07-7.47H287.6a8.62,8.62,0,0,0,6.28-2.75,9.78,9.78,0,0,0,0-13.28,8.62,8.62,0,0,0-6.28-2.75H263.34a20.86,20.86,0,0,1-15.2-6.66,23.66,23.66,0,0,1,0-32.14,20.86,20.86,0,0,1,15.2-6.66Zm139.53-.16v70.71a7.28,7.28,0,0,1-7.07,7.47h-5.54V308.2a7.28,7.28,0,0,1,7.07-7.47h5.54Zm28.7,59.1v11.61a7.28,7.28,0,0,1-7.07,7.47H419V300.72h12.61v0h24a27.12,27.12,0,0,1,19.39,8.65,30.74,30.74,0,0,1,0,41.76,28.34,28.34,0,0,1-5.47,4.5L483.3,378.9H468.43L457,359.76q-.92.06-1.85.06Zm-76.8-13.34a14.87,14.87,0,0,0,10.83-4.74,16.86,16.86,0,0,0,0-22.9,14.87,14.87,0,0,0-10.83-4.74h-23.6v32.39Zm0-45.72a27.1,27.1,0,0,1,19.75,8.65,30.74,30.74,0,0,1,0,41.76,27.11,27.11,0,0,1-19.75,8.65h-23.6v11.61a7.28,7.28,0,0,1-7.07,7.47h-5.54V300.76h36.21Zm160,0H571V314.1h-21.8v57.33a7.28,7.28,0,0,1-7.07,7.47H536.6V314.1H514.8Zm-8.51,0v70.71a7.28,7.28,0,0,1-7.07,7.47h-5.54V308.2a7.28,7.28,0,0,1,7.07-7.47h5.54Z"/><path class="cls-29" d="M647.28,310.92,731.82,132.7l11.23,5.94L662.37,308.72,804.33,171l8.52,9.79L667.28,322l179.1-62.59,3.94,12.66L671.11,334.72l184,20.65-1.33,13.23-187.32-21L807.79,446l-6.95,11.1L659.3,358.52a28.55,28.55,0,0,0,8.46-20.87c-.19-13.1-8.91-24-20.48-26.73Zm10.25,49.2,59.17,141.27-11.53,5.37L646,365.51a25.54,25.54,0,0,0,11.52-5.39ZM642,365.92l-26.12,125L603.64,488l26.12-125a25.06,25.06,0,0,0,12.06,2.87Zm-16.77-5.84-76.14,65.61-7.93-10.31,76.26-65.72A27.75,27.75,0,0,0,625.26,360.07Z"/><path class="cls-29" d="M719.76,571.64a38.15,38.15,0,0,1-27-13.6,42.58,42.58,0,0,1-10-29.77,42.13,42.13,0,0,1,12.87-28.53,37.65,37.65,0,0,1,28.16-10.53,38.15,38.15,0,0,1,27,13.6,42.58,42.58,0,0,1,10,29.77,42.13,42.13,0,0,1-12.87,28.53,37.65,37.65,0,0,1-28.16,10.52Zm-12.94-27a19.68,19.68,0,0,0,13.9,7,19.47,19.47,0,0,0,14.56-5.45,21.72,21.72,0,0,0,6.66-14.7,22,22,0,0,0-5.15-15.39,19.68,19.68,0,0,0-13.9-7,19.47,19.47,0,0,0-14.56,5.45,21.72,21.72,0,0,0-6.66,14.7A22,22,0,0,0,706.82,544.67Z"/><path class="cls-29" d="M606.12,539.27v0a28.67,28.67,0,0,1-20.92-8.94,32.07,32.07,0,0,1-8.86-22l0-.08h0a32.13,32.13,0,0,1,8.45-22.12,28.74,28.74,0,0,1,20.84-9.37l.07,0v0a28.67,28.67,0,0,1,20.92,8.94,32.07,32.07,0,0,1,8.86,22l0,.08h0A32.13,32.13,0,0,1,627,529.86a28.74,28.74,0,0,1-20.84,9.37l-.07,0Zm0-20v0a10.43,10.43,0,0,0,7.46-3.43,11.66,11.66,0,0,0,3.06-8.06l0-.08h0a11.62,11.62,0,0,0-3.24-7.89,10.4,10.4,0,0,0-7.62-3.23l-.07,0v0a10.43,10.43,0,0,0-7.46,3.43,11.66,11.66,0,0,0-3.06,8.06l0,.08h0a11.62,11.62,0,0,0,3.24,7.89A10.4,10.4,0,0,0,606,519.3l.07,0Z"/><path class="cls-29" d="M828.42,198.35a37.8,37.8,0,0,1-27.64-11.64,42.31,42.31,0,0,1-11.83-29l0-.12h0a42.4,42.4,0,0,1,11-29.22,38,38,0,0,1,27.45-12.51l.11,0v0a37.8,37.8,0,0,1,27.64,11.64,42.31,42.31,0,0,1,11.83,29l0,.12h0a42.4,42.4,0,0,1-11,29.22,38,38,0,0,1-27.45,12.51l-.11,0ZM813.94,172.4a19.56,19.56,0,0,0,14.37,6l.11,0v0a19.6,19.6,0,0,0,14-6.49,22,22,0,0,0,5.69-15.19l0-.12h0A21.82,21.82,0,0,0,842,141.77a19.57,19.57,0,0,0-14.37-6l-.11,0v0a19.6,19.6,0,0,0-14,6.49,22,22,0,0,0-5.69,15.19l0,.12h0a21.82,21.82,0,0,0,6.14,14.84Z"/><path class="cls-29" d="M880.83,407.16a37.8,37.8,0,0,1-27.75-11.64,43,43,0,0,1-.82-58.36,38,38,0,0,1,27.45-12.51l.11,0v0a37.8,37.8,0,0,1,27.64,11.64,42.31,42.31,0,0,1,11.83,29l0,.12h0a42.39,42.39,0,0,1-11,29.22,38,38,0,0,1-27.45,12.51Zm-14.59-25.94a19.38,19.38,0,0,0,28.52-.48,22,22,0,0,0,5.69-15.2l0-.12h0a21.82,21.82,0,0,0-6.14-14.84,19.57,19.57,0,0,0-14.37-6l-.11,0v0a19.6,19.6,0,0,0-14,6.49,22.17,22.17,0,0,0,.45,30.15Z"/><path class="cls-29" d="M406,144.41v76.28h0a39.35,39.35,0,0,0,10.62,27.11,34.88,34.88,0,0,0,51.27,0,39.34,39.34,0,0,0,10.62-27.11V128.93h11.93c7.46.75,13.3,7.39,13.3,15.48v76.28a66.72,66.72,0,0,1-18,46,59.15,59.15,0,0,1-86.94,0,66.72,66.72,0,0,1-18-46h0V128.86h10.52c8.12,0,14.7,7,14.7,15.55Z"/><path class="cls-29" d="M642,382.36a40.57,40.57,0,0,1-29.79-12.5,46.13,46.13,0,0,1-.89-62.64,40.32,40.32,0,0,1,59.24-.94,46.13,46.13,0,0,1,.89,62.64A40.74,40.74,0,0,1,642,382.36ZM627.46,353.3a19.28,19.28,0,0,0,28.36-.47,22.05,22.05,0,0,0-.44-30,19.28,19.28,0,0,0-28.36.47,22.05,22.05,0,0,0,.44,30Z"/><path class="cls-29" d="M545.94,439.53a15.83,15.83,0,0,1-11.66-2.26,17.5,17.5,0,0,1-7.55-10.85l-.2-.85v-.14a18.38,18.38,0,0,1,2.14-12.33,16.73,16.73,0,0,1,10.29-8l.8-.21h.11a15.83,15.83,0,0,1,11.66,2.26A17.5,17.5,0,0,1,559.09,418l.2.85V419a18.39,18.39,0,0,1-2.14,12.33,16.73,16.73,0,0,1-10.29,8l-.8.21h-.11Z"/><path class="cls-29" d="M812.57,479.07v0a19.5,19.5,0,0,1-14.24-6,21.84,21.84,0,0,1-6.1-15l0-.08h0a21.87,21.87,0,0,1,5.68-15.06,19.4,19.4,0,0,1,28.49-.45,22.19,22.19,0,0,1,.42,30.12A19.6,19.6,0,0,1,812.65,479Z"/><path class="cls-29" d="M848.56,287.07v0a19.5,19.5,0,0,1-14.24-6,21.84,21.84,0,0,1-6.1-15l0-.08h0a21.87,21.87,0,0,1,5.68-15.06,19.6,19.6,0,0,1,14.17-6.45l.07,0v0a19.5,19.5,0,0,1,14.24,6,21.84,21.84,0,0,1,6.1,15l0,.08h0a21.87,21.87,0,0,1-5.68,15.06A19.59,19.59,0,0,1,848.63,287l-.07,0Z"/><path class="cls-29" d="M737.72,157a19.5,19.5,0,0,1-14.32-6,22.19,22.19,0,0,1-.42-30.12,19.59,19.59,0,0,1,14.17-6.45l.07,0v0a19.5,19.5,0,0,1,14.24,6,21.84,21.84,0,0,1,6.1,15l0,.08h0a21.87,21.87,0,0,1-5.68,15.06A19.6,19.6,0,0,1,737.72,157Z"/><path class="cls-29" d="M338.44,155.37H281.78A14.6,14.6,0,0,0,271.14,160a16.56,16.56,0,0,0,0,22.5,14.6,14.6,0,0,0,10.64,4.66h37.39l0-.09a42.27,42.27,0,0,1,30.69,13.51,47.66,47.66,0,0,1,0,64.75,42,42,0,0,1-30.58,13.41h-73.4V267.64c0-8.59,6.58-15.55,14.7-15.55h58.66a17.55,17.55,0,0,0,12.79-5.6,19.91,19.91,0,0,0,0-27,17.92,17.92,0,0,0-11.6-5.64v0H279.08v-.09a39.21,39.21,0,0,1-25.78-12.38,44.32,44.32,0,0,1,0-60.21,39.08,39.08,0,0,1,28.47-12.47h71.37v11.12c0,8.59-6.58,15.55-14.7,15.55Z"/><path class="cls-29" d="M639.22,40.09a7.45,7.45,0,0,1-5.47-2.3,8.48,8.48,0,0,1-.16-11.51A7.49,7.49,0,0,1,639,23.81h0a7.46,7.46,0,0,1,5.44,2.3,8.35,8.35,0,0,1,2.33,5.73v0h0a8.36,8.36,0,0,1-2.17,5.76,7.49,7.49,0,0,1-5.42,2.47Z"/><path class="cls-29" d="M639.62,80.09a7.45,7.45,0,0,1-5.47-2.3A8.48,8.48,0,0,1,634,66.28a7.49,7.49,0,0,1,5.42-2.47h0a7.46,7.46,0,0,1,5.44,2.3,8.35,8.35,0,0,1,2.33,5.73v0h0A8.36,8.36,0,0,1,645,77.62a7.49,7.49,0,0,1-5.42,2.47Z"/><path class="cls-29" d="M640.41,121.47a7.46,7.46,0,0,1-5.47-2.3,8.48,8.48,0,0,1-.16-11.51,7.49,7.49,0,0,1,5.42-2.47h0a7.46,7.46,0,0,1,5.44,2.3,8.35,8.35,0,0,1,2.33,5.73v0h0a8.36,8.36,0,0,1-2.17,5.76,7.49,7.49,0,0,1-5.42,2.47Z"/></g></g></g></g></svg>