<?xml version="1.0" standalone="no"?>
<!DOCTYPE svg PUBLIC "-//W3C//DTD SVG 20010904//EN"
 "http://www.w3.org/TR/2001/REC-SVG-20010904/DTD/svg10.dtd">
<svg version="1.0" xmlns="http://www.w3.org/2000/svg"
 width="521.000000pt" height="521.000000pt" viewBox="0 0 521.000000 521.000000"
 preserveAspectRatio="xMidYMid meet">
<metadata>
Created by potrace 1.11, written by Peter Selinger 2001-2013
</metadata>
<g transform="translate(0.000000,521.000000) scale(0.100000,-0.100000)"
fill="#000000" stroke="none">
<path d="M2167 4144 c-11 -12 -8 -42 6 -47 6 -2 21 0 31 6 27 14 156 2 241
-22 103 -30 260 -112 339 -177 l69 -57 -47 -12 c-26 -7 -52 -17 -58 -23 -7 -7
-29 3 -71 33 -125 87 -259 138 -397 151 -36 4 -72 10 -80 14 -22 11 -40 1 -40
-20 0 -27 18 -34 45 -20 19 10 42 10 120 -4 116 -19 222 -62 321 -128 l73 -49
-16 -36 c-8 -21 -13 -51 -10 -70 l6 -32 -54 42 c-44 34 -54 48 -54 73 -2 66
-73 102 -119 61 -16 -15 -22 -15 -60 -1 -24 8 -75 19 -115 25 -40 6 -82 15
-94 20 -25 9 -49 -12 -39 -36 6 -17 46 -21 46 -4 0 14 97 2 178 -23 51 -16 62
-23 62 -41 0 -12 4 -28 9 -36 6 -9 5 -24 -2 -38 -8 -18 -16 -23 -31 -18 -12 3
-58 15 -103 27 -75 19 -83 23 -88 50 -7 30 -31 48 -64 48 -20 0 -21 -5 -21
-185 l0 -186 -56 83 c-168 246 -193 277 -230 284 -19 4 -40 2 -45 -3 -5 -5 -8
-112 -7 -259 l3 -249 23 -3 c13 -2 32 4 43 14 17 16 19 32 19 186 l0 168 87
-127 c146 -216 159 -231 197 -239 19 -3 39 -3 45 1 7 4 11 75 11 206 l0 199
29 0 c30 0 161 -37 161 -46 0 -3 -43 -97 -96 -209 l-97 -203 -45 0 c-51 0 -84
-20 -120 -73 -21 -30 -23 -42 -19 -95 l6 -61 -84 -72 c-62 -52 -92 -71 -113
-71 -58 0 -86 -82 -40 -114 42 -30 85 -12 96 40 5 20 34 53 93 106 82 73 86
75 106 59 l21 -16 -36 -162 c-31 -139 -39 -163 -55 -163 -10 0 -32 -13 -48
-29 -23 -24 -29 -38 -29 -73 0 -52 21 -85 66 -104 29 -12 39 -12 68 0 19 8 42
26 51 40 14 21 25 26 59 26 22 1 59 4 82 9 l41 8 -5 -42 c-10 -96 78 -179 166
-156 59 16 102 72 102 133 0 28 12 43 79 106 44 39 88 72 98 72 46 0 79 52 62
98 -5 14 1 42 21 89 16 37 30 76 30 86 0 21 13 22 30 2 22 -27 84 -37 129 -22
l40 14 26 -83 c43 -139 59 -170 92 -177 16 -3 41 -15 55 -27 24 -18 26 -24 17
-47 -11 -29 0 -43 34 -43 23 0 37 -39 37 -101 0 -28 5 -59 10 -70 9 -16 3 -29
-37 -77 -27 -31 -59 -73 -72 -92 l-24 -35 24 22 c18 17 28 19 42 12 27 -16 61
11 83 65 11 25 21 46 24 46 3 0 25 -20 49 -44 l44 -44 -34 -10 c-19 -5 -77
-19 -129 -32 -52 -13 -108 -29 -125 -36 -16 -6 -79 -27 -139 -45 l-109 -33
-136 22 c-129 22 -140 22 -221 7 -168 -30 -430 -101 -430 -116 0 -8 152 -60
240 -82 l55 -13 -165 -80 c-91 -44 -222 -115 -293 -157 -105 -64 -131 -76
-147 -67 -29 15 -35 12 -16 -9 16 -17 13 -21 -55 -76 -82 -66 -154 -159 -170
-218 -14 -52 3 -111 41 -138 33 -24 227 -75 364 -95 335 -49 399 73 157 298
-42 39 -69 69 -61 66 254 -88 512 -140 860 -173 91 -8 221 -15 290 -16 119 -1
132 1 265 41 565 166 1075 389 1368 598 42 30 77 59 77 64 0 22 -220 99 -395
138 -55 13 -102 24 -103 26 -2 1 8 20 22 41 30 43 76 179 76 224 l0 29 -82 0
c-96 0 -300 -22 -476 -50 -67 -11 -125 -20 -129 -20 -4 0 44 48 106 107 139
131 322 339 402 456 l60 87 -37 70 c-21 38 -48 82 -60 97 l-22 28 -49 -24
c-52 -25 -222 -134 -290 -186 l-43 -33 -62 33 c-145 77 -345 120 -603 131
l-155 7 -20 34 c-11 18 -30 38 -43 44 -21 10 -25 20 -31 78 -9 103 -42 218
-89 313 -41 84 -42 87 -25 108 22 27 32 80 24 125 -14 74 -200 235 -361 311
-100 47 -174 69 -291 84 -43 6 -90 13 -104 16 -14 2 -29 2 -33 -2z m704 -392
c46 -38 17 -122 -42 -122 -33 0 -69 34 -69 66 0 31 37 74 65 74 12 0 33 -8 46
-18z m-215 -96 l49 -45 -40 -40 -40 -40 -54 45 c-29 24 -60 48 -69 53 -26 14
-2 62 38 76 42 14 53 9 116 -49z m-90 -104 l39 -32 -157 -157 c-87 -86 -159
-155 -162 -153 -2 3 39 96 92 207 l95 203 27 -18 c15 -9 44 -32 66 -50z m371
-45 c58 -127 93 -258 93 -343 0 -30 -3 -34 -25 -34 -15 0 -39 -7 -55 -15 -30
-15 -30 -15 -30 12 0 16 -3 51 -6 79 -6 47 -4 53 15 59 22 7 37 45 32 80 -5
32 -30 54 -68 57 -31 3 -37 9 -77 83 l-42 80 42 -3 c23 -2 51 1 61 7 10 6 20
10 23 10 3 0 20 -32 37 -72z m-164 11 c57 -88 69 -117 63 -153 -5 -26 -14 -36
-38 -44 -44 -15 -44 -15 -62 30 -9 22 -32 65 -50 94 l-34 52 36 37 c20 20 40
36 43 36 4 0 23 -24 42 -52z m-74 -147 c18 -35 29 -67 24 -72 -13 -13 -397
-147 -406 -142 -5 3 65 76 155 162 186 180 165 175 227 52z m168 -111 c28 -25
42 -154 23 -201 -12 -27 -17 -30 -43 -25 -16 3 -35 6 -42 6 -8 0 -14 26 -18
78 -3 42 -9 91 -13 108 -5 28 -3 33 22 42 41 15 48 14 71 -8z m-108 -136 l1
-80 -207 23 c-113 13 -209 25 -211 28 -10 9 7 16 204 84 230 79 211 84 213
-55z m-519 4 c11 -12 20 -32 20 -45 0 -29 -42 -73 -70 -73 -50 0 -80 82 -43
122 22 25 68 23 93 -4z m805 -93 c30 -29 32 -68 5 -95 -41 -41 -110 -10 -110
49 0 20 9 36 26 50 34 27 50 26 79 -4z m-515 -15 c254 -29 231 -20 215 -79
-15 -58 -61 -161 -71 -161 -4 0 -23 12 -43 28 -36 28 -127 91 -238 165 -35 23
-63 47 -63 54 0 16 -18 17 200 -7z m308 -36 c41 -8 47 -45 22 -126 -32 -100
-40 -111 -91 -112 -67 -2 -70 4 -38 87 16 39 34 91 39 115 11 43 16 46 68 36z
m-458 -65 c68 -50 84 -69 57 -69 -8 0 -32 -13 -54 -29 l-40 -29 -36 81 c-25
59 -32 84 -24 89 19 12 23 10 97 -43z m-139 -16 c6 -16 40 -99 76 -187 50
-120 64 -162 56 -175 -12 -20 -76 -38 -144 -43 -53 -3 -53 -3 -60 30 -4 18
-17 44 -29 57 l-22 23 33 161 c32 152 35 161 57 161 15 0 26 -8 33 -27z m407
-169 c7 -5 -74 -88 -121 -126 -73 -57 -86 -53 -124 40 -18 42 -33 80 -33 83 0
3 20 19 45 35 25 15 52 39 61 51 l15 23 77 -51 c42 -29 78 -53 80 -55z m53
-61 c3 -18 12 -39 18 -47 10 -12 1 -26 -50 -75 -34 -34 -66 -61 -70 -61 -4 0
-15 10 -23 21 -8 12 -26 29 -41 39 l-25 16 44 32 c24 18 59 50 76 73 38 47 61
47 71 2z m-602 -152 c13 -24 -8 -55 -35 -49 -25 4 -31 38 -8 55 24 17 31 16
43 -6z m405 -42 c48 -38 22 -119 -39 -119 -32 0 -65 33 -65 65 0 28 40 75 63
75 8 0 26 -9 41 -21z m973 -54 c-27 -30 -52 -55 -53 -55 -2 0 -4 25 -4 55 l0
55 54 0 54 0 -51 -55z"/>
<path d="M1307 3793 c-4 -3 -7 -46 -7 -95 l0 -89 -47 1 c-27 0 -105 -2 -175
-6 -140 -8 -158 -2 -158 45 0 46 15 51 140 51 129 0 150 9 150 63 l0 27 -142
0 c-122 0 -147 -3 -174 -19 -58 -35 -80 -120 -48 -187 25 -53 63 -74 144 -81
l70 -6 0 -33 c0 -18 4 -44 9 -57 l9 -24 -99 -6 c-55 -3 -106 -11 -114 -17 -8
-7 -15 -28 -15 -46 l0 -34 139 0 140 0 25 -32 26 -33 -45 -3 -45 -3 0 -135 c0
-135 0 -135 23 -132 15 2 23 11 25 29 3 25 7 27 62 31 61 4 110 33 110 65 0 8
5 11 10 8 6 -3 10 -35 10 -71 0 -61 1 -64 24 -64 24 0 36 16 36 51 0 10 4 19
8 19 15 0 32 -24 32 -47 0 -18 6 -23 25 -23 14 0 25 4 25 9 0 5 35 -5 78 -22
67 -27 90 -31 174 -31 113 -1 143 14 168 82 12 35 12 49 1 89 -27 95 -27 91
15 95 32 2 40 7 42 26 3 21 0 22 -57 22 l-60 0 -44 58 c-25 31 -56 67 -69 80
-24 22 -25 24 -11 74 8 32 13 107 13 191 0 133 -1 139 -25 162 -13 14 -33 25
-45 25 -19 0 -20 -6 -21 -162 0 -90 -4 -171 -7 -180 -6 -16 -13 -14 -57 18
-28 20 -80 51 -117 70 l-68 34 0 95 c0 86 -2 95 -22 109 -24 17 -50 21 -61 9z
m-65 -650 c21 -18 24 -53 6 -71 -7 -7 -34 -12 -60 -12 l-48 0 0 50 0 50 42 0
c24 0 49 -7 60 -17z"/>
<path d="M855 3185 c-16 -15 -25 -36 -25 -55 0 -49 38 -80 99 -80 58 0 81 -7
81 -25 0 -22 -21 -30 -100 -35 -68 -5 -75 -7 -78 -27 -3 -22 -1 -23 86 -23 50
0 98 3 107 6 25 10 47 62 40 95 -9 41 -40 59 -105 59 -63 0 -83 10 -78 36 3
16 15 20 78 24 68 5 75 7 78 28 3 21 1 22 -78 22 -73 0 -83 -3 -105 -25z"/>
<path d="M1504 2645 c-8 -20 66 -141 116 -190 48 -47 52 -62 8 -35 -47 29
-157 61 -182 54 -32 -10 -56 -35 -56 -59 0 -39 28 -103 69 -158 l40 -54 93 19
c51 10 122 32 157 48 35 17 69 30 77 30 7 0 17 6 21 13 4 7 21 23 37 35 l29
22 -36 15 c-20 8 -43 15 -51 15 -7 0 -16 6 -19 13 -14 37 -127 151 -193 196
-80 54 -101 61 -110 36z"/>
<path d="M1935 1826 c-51 -33 -115 -98 -115 -117 0 -13 48 -1 88 23 32 20 68
62 91 106 17 32 -3 28 -64 -12z"/>
<path d="M995 1750 c-157 -34 -248 -113 -231 -203 16 -83 154 -177 311 -212
110 -25 307 -17 390 15 66 25 130 81 140 123 26 103 -90 212 -280 263 -69 18
-271 27 -330 14z"/>
</g>
</svg>
