<svg xmlns="http://www.w3.org/2000/svg" version="1.2" baseProfile="tiny" width="960" height="540">
[<rect x="0" y="0" width="959" height="539" fill="rgb(110,61,113)" fill-opacity="1"></rect>,<g transform="translate(583 225) rotate(251) scale(163 210)"><ellipse cx="0" cy="0" rx="1" ry="1" fill="rgb(112,183,255)" fill-opacity="0.5019607843137255"></ellipse></g>,<g transform="translate(265 62) rotate(128) scale(371 251)"><ellipse cx="0" cy="0" rx="1" ry="1" fill="rgb(255,80,52)" fill-opacity="0.5019607843137255"></ellipse></g>,<g transform="translate(280 372) rotate(0) scale(64 101)"><ellipse cx="0" cy="0" rx="1" ry="1" fill="rgb(255,47,74)" fill-opacity="0.5019607843137255"></ellipse></g>,<g transform="translate(635 303) rotate(209) scale(74 89)"><ellipse cx="0" cy="0" rx="1" ry="1" fill="rgb(255,213,255)" fill-opacity="0.5019607843137255"></ellipse></g>,<g transform="translate(774 493) rotate(0) scale(501 139)"><ellipse cx="0" cy="0" rx="1" ry="1" fill="rgb(0,0,52)" fill-opacity="0.5019607843137255"></ellipse></g>,<g transform="translate(868 167) rotate(235) scale(286 185)"><ellipse cx="0" cy="0" rx="1" ry="1" fill="rgb(0,36,157)" fill-opacity="0.5019607843137255"></ellipse></g>,<g transform="translate(414 94) rotate(302) scale(188 84)"><ellipse cx="0" cy="0" rx="1" ry="1" fill="rgb(255,185,115)" fill-opacity="0.5019607843137255"></ellipse></g>,<g transform="translate(737 165) rotate(4) scale(202 79)"><ellipse cx="0" cy="0" rx="1" ry="1" fill="rgb(0,103,215)" fill-opacity="0.5019607843137255"></ellipse></g>,<g transform="translate(497 227) rotate(65) scale(98 78)"><ellipse cx="0" cy="0" rx="1" ry="1" fill="rgb(0,118,229)" fill-opacity="0.5019607843137255"></ellipse></g>,<g transform="translate(392 288) rotate(235) scale(75 25)"><ellipse cx="0" cy="0" rx="1" ry="1" fill="rgb(255,147,100)" fill-opacity="0.5019607843137255"></ellipse></g>,<g transform="translate(87 510) rotate(205) scale(373 83)"><ellipse cx="0" cy="0" rx="1" ry="1" fill="rgb(0,0,52)" fill-opacity="0.5019607843137255"></ellipse></g>,<g transform="translate(549 50) rotate(18) scale(54 90)"><ellipse cx="0" cy="0" rx="1" ry="1" fill="rgb(255,112,131)" fill-opacity="0.5019607843137255"></ellipse></g>,<g transform="translate(634 306) rotate(41) scale(78 113)"><ellipse cx="0" cy="0" rx="1" ry="1" fill="rgb(255,160,233)" fill-opacity="0.5019607843137255"></ellipse></g>,<g transform="translate(143 184) rotate(355) scale(225 149)"><ellipse cx="0" cy="0" rx="1" ry="1" fill="rgb(255,40,54)" fill-opacity="0.5019607843137255"></ellipse></g>,<g transform="translate(419 52) rotate(229) scale(48 92)"><ellipse cx="0" cy="0" rx="1" ry="1" fill="rgb(255,199,111)" fill-opacity="0.5019607843137255"></ellipse></g>,<g transform="translate(143 209) rotate(216) scale(177 118)"><ellipse cx="0" cy="0" rx="1" ry="1" fill="rgb(255,72,72)" fill-opacity="0.5019607843137255"></ellipse></g>,<g transform="translate(739 488) rotate(74) scale(137 539)"><ellipse cx="0" cy="0" rx="1" ry="1" fill="rgb(0,0,71)" fill-opacity="0.5019607843137255"></ellipse></g>,<g transform="translate(179 19) rotate(128) scale(70 149)"><ellipse cx="0" cy="0" rx="1" ry="1" fill="rgb(119,0,74)" fill-opacity="0.5019607843137255"></ellipse></g>,<g transform="translate(551 411) rotate(8) scale(199 38)"><ellipse cx="0" cy="0" rx="1" ry="1" fill="rgb(1,41,175)" fill-opacity="0.5019607843137255"></ellipse></g>,<g transform="translate(443 136) rotate(231) scale(29 49)"><ellipse cx="0" cy="0" rx="1" ry="1" fill="rgb(134,74,155)" fill-opacity="0.5019607843137255"></ellipse></g>,<g transform="translate(864 250) rotate(227) scale(59 280)"><ellipse cx="0" cy="0" rx="1" ry="1" fill="rgb(0,23,145)" fill-opacity="0.5019607843137255"></ellipse></g>,<g transform="translate(723 275) rotate(185) scale(25 71)"><ellipse cx="0" cy="0" rx="1" ry="1" fill="rgb(60,85,233)" fill-opacity="0.5019607843137255"></ellipse></g>,<g transform="translate(227 29) rotate(60) scale(82 27)"><ellipse cx="0" cy="0" rx="1" ry="1" fill="rgb(88,2,79)" fill-opacity="0.5019607843137255"></ellipse></g>,<g transform="translate(588 364) rotate(187) scale(102 32)"><ellipse cx="0" cy="0" rx="1" ry="1" fill="rgb(224,84,213)" fill-opacity="0.5019607843137255"></ellipse></g>,<g transform="translate(634 308) rotate(359) scale(53 60)"><ellipse cx="0" cy="0" rx="1" ry="1" fill="rgb(255,237,218)" fill-opacity="0.5019607843137255"></ellipse></g>,<g transform="translate(93 523) rotate(186) scale(124 63)"><ellipse cx="0" cy="0" rx="1" ry="1" fill="rgb(0,0,64)" fill-opacity="0.5019607843137255"></ellipse></g>,<g transform="translate(337 304) rotate(46) scale(70 16)"><ellipse cx="0" cy="0" rx="1" ry="1" fill="rgb(51,0,92)" fill-opacity="0.5019607843137255"></ellipse></g>,<g transform="translate(244 329) rotate(131) scale(42 116)"><ellipse cx="0" cy="0" rx="1" ry="1" fill="rgb(255,75,88)" fill-opacity="0.5019607843137255"></ellipse></g>,<g transform="translate(167 194) rotate(347) scale(79 51)"><ellipse cx="0" cy="0" rx="1" ry="1" fill="rgb(255,123,76)" fill-opacity="0.5019607843137255"></ellipse></g>]</svg>