<!--?xml version="1.0" standalone="no"?-->
<svg xmlns="http://www.w3.org/2000/svg" version="1.2" baseProfile="tiny" width="960" height="540">
[<rect x="0" y="0" width="959" height="539" fill="rgb(110,61,113)" fill-opacity="1"></rect>,<g transform="translate(583 225) rotate(251) scale(163 210)"><ellipse cx="0" cy="0" rx="1" ry="1" fill="rgb(112,183,255)" fill-opacity="0.5019607843137255"></ellipse></g>,<g transform="translate(265 62) rotate(128) scale(371 251)"><ellipse cx="0" cy="0" rx="1" ry="1" fill="rgb(255,80,52)" fill-opacity="0.5019607843137255"></ellipse></g>,<g transform="translate(280 372) rotate(0) scale(64 101)"><ellipse cx="0" cy="0" rx="1" ry="1" fill="rgb(255,47,74)" fill-opacity="0.5019607843137255"></ellipse></g>,<g transform="translate(635 303) rotate(209) scale(74 89)"><ellipse cx="0" cy="0" rx="1" ry="1" fill="rgb(255,213,255)" fill-opacity="0.5019607843137255"></ellipse></g>,<g transform="translate(774 493) rotate(0) scale(501 139)"><ellipse cx="0" cy="0" rx="1" ry="1" fill="rgb(0,0,52)" fill-opacity="0.5019607843137255"></ellipse></g>,<g transform="translate(868 167) rotate(235) scale(286 185)"><ellipse cx="0" cy="0" rx="1" ry="1" fill="rgb(0,36,157)" fill-opacity="0.5019607843137255"></ellipse></g>,<g transform="translate(414 94) rotate(302) scale(188 84)"><ellipse cx="0" cy="0" rx="1" ry="1" fill="rgb(255,185,115)" fill-opacity="0.5019607843137255"></ellipse></g>,<g transform="translate(737 165) rotate(4) scale(202 79)"><ellipse cx="0" cy="0" rx="1" ry="1" fill="rgb(0,103,215)" fill-opacity="0.5019607843137255"></ellipse></g>,<g transform="translate(497 227) rotate(65) scale(98 78)"><ellipse cx="0" cy="0" rx="1" ry="1" fill="rgb(0,118,229)" fill-opacity="0.5019607843137255"></ellipse></g>,<g transform="translate(392 288) rotate(235) scale(75 25)"><ellipse cx="0" cy="0" rx="1" ry="1" fill="rgb(255,147,100)" fill-opacity="0.5019607843137255"></ellipse></g>,<g transform="translate(87 510) rotate(205) scale(373 83)"><ellipse cx="0" cy="0" rx="1" ry="1" fill="rgb(0,0,52)" fill-opacity="0.5019607843137255"></ellipse></g>,<g transform="translate(549 50) rotate(18) scale(54 90)"><ellipse cx="0" cy="0" rx="1" ry="1" fill="rgb(255,112,131)" fill-opacity="0.5019607843137255"></ellipse></g>,<g transform="translate(634 306) rotate(41) scale(78 113)"><ellipse cx="0" cy="0" rx="1" ry="1" fill="rgb(255,160,233)" fill-opacity="0.5019607843137255"></ellipse></g>,<g transform="translate(143 184) rotate(355) scale(225 149)"><ellipse cx="0" cy="0" rx="1" ry="1" fill="rgb(255,40,54)" fill-opacity="0.5019607843137255"></ellipse></g>,<g transform="translate(419 52) rotate(229) scale(48 92)"><ellipse cx="0" cy="0" rx="1" ry="1" fill="rgb(255,199,111)" fill-opacity="0.5019607843137255"></ellipse></g>,<g transform="translate(143 209) rotate(216) scale(177 118)"><ellipse cx="0" cy="0" rx="1" ry="1" fill="rgb(255,72,72)" fill-opacity="0.5019607843137255"></ellipse></g>,<g transform="translate(739 488) rotate(74) scale(137 539)"><ellipse cx="0" cy="0" rx="1" ry="1" fill="rgb(0,0,71)" fill-opacity="0.5019607843137255"></ellipse></g>,<g transform="translate(179 19) rotate(128) scale(70 149)"><ellipse cx="0" cy="0" rx="1" ry="1" fill="rgb(119,0,74)" fill-opacity="0.5019607843137255"></ellipse></g>,<g transform="translate(551 411) rotate(8) scale(199 38)"><ellipse cx="0" cy="0" rx="1" ry="1" fill="rgb(1,41,175)" fill-opacity="0.5019607843137255"></ellipse></g>,<g transform="translate(443 136) rotate(231) scale(29 49)"><ellipse cx="0" cy="0" rx="1" ry="1" fill="rgb(134,74,155)" fill-opacity="0.5019607843137255"></ellipse></g>,<g transform="translate(864 250) rotate(227) scale(59 280)"><ellipse cx="0" cy="0" rx="1" ry="1" fill="rgb(0,23,145)" fill-opacity="0.5019607843137255"></ellipse></g>,<g transform="translate(723 275) rotate(185) scale(25 71)"><ellipse cx="0" cy="0" rx="1" ry="1" fill="rgb(60,85,233)" fill-opacity="0.5019607843137255"></ellipse></g>,<g transform="translate(227 29) rotate(60) scale(82 27)"><ellipse cx="0" cy="0" rx="1" ry="1" fill="rgb(88,2,79)" fill-opacity="0.5019607843137255"></ellipse></g>,<g transform="translate(588 364) rotate(187) scale(102 32)"><ellipse cx="0" cy="0" rx="1" ry="1" fill="rgb(224,84,213)" fill-opacity="0.5019607843137255"></ellipse></g>,<g transform="translate(634 308) rotate(359) scale(53 60)"><ellipse cx="0" cy="0" rx="1" ry="1" fill="rgb(255,237,218)" fill-opacity="0.5019607843137255"></ellipse></g>,<g transform="translate(93 523) rotate(186) scale(124 63)"><ellipse cx="0" cy="0" rx="1" ry="1" fill="rgb(0,0,64)" fill-opacity="0.5019607843137255"></ellipse></g>,<g transform="translate(337 304) rotate(46) scale(70 16)"><ellipse cx="0" cy="0" rx="1" ry="1" fill="rgb(51,0,92)" fill-opacity="0.5019607843137255"></ellipse></g>,<g transform="translate(244 329) rotate(131) scale(42 116)"><ellipse cx="0" cy="0" rx="1" ry="1" fill="rgb(255,75,88)" fill-opacity="0.5019607843137255"></ellipse></g>,<g transform="translate(167 194) rotate(347) scale(79 51)"><ellipse cx="0" cy="0" rx="1" ry="1" fill="rgb(255,123,76)" fill-opacity="0.5019607843137255"></ellipse></g>,<g transform="translate(941 45) rotate(26) scale(611 50)"><ellipse cx="0" cy="0" rx="1" ry="1" fill="rgb(0,2,25)" fill-opacity="0.5019607843137255"></ellipse></g>,<g transform="translate(38 364) rotate(136) scale(45 75)"><ellipse cx="0" cy="0" rx="1" ry="1" fill="rgb(115,0,86)" fill-opacity="0.5019607843137255"></ellipse></g>,<g transform="translate(409 416) rotate(317) scale(49 64)"><ellipse cx="0" cy="0" rx="1" ry="1" fill="rgb(0,28,71)" fill-opacity="0.5019607843137255"></ellipse></g>,<g transform="translate(333 51) rotate(16) scale(34 179)"><ellipse cx="0" cy="0" rx="1" ry="1" fill="rgb(255,74,73)" fill-opacity="0.5019607843137255"></ellipse></g>,<g transform="translate(891 206) rotate(52) scale(220 105)"><ellipse cx="0" cy="0" rx="1" ry="1" fill="rgb(0,61,145)" fill-opacity="0.5019607843137255"></ellipse></g>,<g transform="translate(625 66) rotate(173) scale(34 32)"><ellipse cx="0" cy="0" rx="1" ry="1" fill="rgb(74,72,164)" fill-opacity="0.5019607843137255"></ellipse></g>,<g transform="translate(196 105) rotate(164) scale(31 59)"><ellipse cx="0" cy="0" rx="1" ry="1" fill="rgb(255,22,46)" fill-opacity="0.5019607843137255"></ellipse></g>,<g transform="translate(333 379) rotate(21) scale(29 41)"><ellipse cx="0" cy="0" rx="1" ry="1" fill="rgb(196,14,63)" fill-opacity="0.5019607843137255"></ellipse></g>,<g transform="translate(29 56) rotate(54) scale(63 75)"><ellipse cx="0" cy="0" rx="1" ry="1" fill="rgb(225,0,68)" fill-opacity="0.5019607843137255"></ellipse></g>,<g transform="translate(483 528) rotate(95) scale(76 175)"><ellipse cx="0" cy="0" rx="1" ry="1" fill="rgb(0,0,19)" fill-opacity="0.5019607843137255"></ellipse></g>,<g transform="translate(588 411) rotate(9) scale(80 23)"><ellipse cx="0" cy="0" rx="1" ry="1" fill="rgb(26,57,206)" fill-opacity="0.5019607843137255"></ellipse></g>,<g transform="translate(850 447) rotate(172) scale(85 157)"><ellipse cx="0" cy="0" rx="1" ry="1" fill="rgb(0,2,51)" fill-opacity="0.5019607843137255"></ellipse></g>,<g transform="translate(700 76) rotate(38) scale(53 19)"><ellipse cx="0" cy="0" rx="1" ry="1" fill="rgb(0,74,160)" fill-opacity="0.5019607843137255"></ellipse></g>,<g transform="translate(760 343) rotate(323) scale(137 30)"><ellipse cx="0" cy="0" rx="1" ry="1" fill="rgb(8,5,139)" fill-opacity="0.5019607843137255"></ellipse></g>,<g transform="translate(557 0) rotate(171) scale(61 46)"><ellipse cx="0" cy="0" rx="1" ry="1" fill="rgb(255,47,71)" fill-opacity="0.5019607843137255"></ellipse></g>,<g transform="translate(525 126) rotate(158) scale(47 32)"><ellipse cx="0" cy="0" rx="1" ry="1" fill="rgb(157,149,187)" fill-opacity="0.5019607843137255"></ellipse></g>,<g transform="translate(368 233) rotate(228) scale(51 30)"><ellipse cx="0" cy="0" rx="1" ry="1" fill="rgb(255,183,89)" fill-opacity="0.5019607843137255"></ellipse></g>,<g transform="translate(421 220) rotate(108) scale(43 23)"><ellipse cx="0" cy="0" rx="1" ry="1" fill="rgb(170,138,183)" fill-opacity="0.5019607843137255"></ellipse></g>,<g transform="translate(878 114) rotate(79) scale(83 64)"><ellipse cx="0" cy="0" rx="1" ry="1" fill="rgb(32,59,123)" fill-opacity="0.5019607843137255"></ellipse></g>,<g transform="translate(687 348) rotate(220) scale(22 30)"><ellipse cx="0" cy="0" rx="1" ry="1" fill="rgb(200,62,217)" fill-opacity="0.5019607843137255"></ellipse></g>,<g transform="translate(616 225) rotate(48) scale(22 22)"><ellipse cx="0" cy="0" rx="1" ry="1" fill="rgb(72,127,233)" fill-opacity="0.5019607843137255"></ellipse></g>,<g transform="translate(444 271) rotate(217) scale(31 40)"><ellipse cx="0" cy="0" rx="1" ry="1" fill="rgb(75,80,153)" fill-opacity="0.5019607843137255"></ellipse></g>,<g transform="translate(486 340) rotate(50) scale(46 21)"><ellipse cx="0" cy="0" rx="1" ry="1" fill="rgb(68,112,199)" fill-opacity="0.5019607843137255"></ellipse></g>,<g transform="translate(488 68) rotate(350) scale(85 42)"><ellipse cx="0" cy="0" rx="1" ry="1" fill="rgb(254,137,128)" fill-opacity="0.5019607843137255"></ellipse></g>,<g transform="translate(490 233) rotate(169) scale(37 68)"><ellipse cx="0" cy="0" rx="1" ry="1" fill="rgb(9,118,202)" fill-opacity="0.5019607843137255"></ellipse></g>,<g transform="translate(693 179) rotate(137) scale(31 74)"><ellipse cx="0" cy="0" rx="1" ry="1" fill="rgb(32,154,239)" fill-opacity="0.5019607843137255"></ellipse></g>,<g transform="translate(648 8) rotate(173) scale(54 17)"><ellipse cx="0" cy="0" rx="1" ry="1" fill="rgb(123,23,97)" fill-opacity="0.5019607843137255"></ellipse></g>,<g transform="translate(456 397) rotate(124) scale(45 23)"><ellipse cx="0" cy="0" rx="1" ry="1" fill="rgb(12,77,160)" fill-opacity="0.5019607843137255"></ellipse></g>,<g transform="translate(400 315) rotate(97) scale(25 32)"><ellipse cx="0" cy="0" rx="1" ry="1" fill="rgb(237,90,120)" fill-opacity="0.5019607843137255"></ellipse></g>,<g transform="translate(269 254) rotate(173) scale(31 41)"><ellipse cx="0" cy="0" rx="1" ry="1" fill="rgb(250,12,76)" fill-opacity="0.5019607843137255"></ellipse></g>,<g transform="translate(146 358) rotate(65) scale(51 52)"><ellipse cx="0" cy="0" rx="1" ry="1" fill="rgb(178,47,119)" fill-opacity="0.5019607843137255"></ellipse></g>,<g transform="translate(299 457) rotate(36) scale(31 49)"><ellipse cx="0" cy="0" rx="1" ry="1" fill="rgb(169,53,106)" fill-opacity="0.5019607843137255"></ellipse></g>,<g transform="translate(562 261) rotate(208) scale(22 63)"><ellipse cx="0" cy="0" rx="1" ry="1" fill="rgb(80,140,231)" fill-opacity="0.5019607843137255"></ellipse></g>,<g transform="translate(511 461) rotate(9) scale(74 51)"><ellipse cx="0" cy="0" rx="1" ry="1" fill="rgb(0,6,75)" fill-opacity="0.5019607843137255"></ellipse></g>,<g transform="translate(352 171) rotate(11) scale(40 55)"><ellipse cx="0" cy="0" rx="1" ry="1" fill="rgb(255,134,59)" fill-opacity="0.5019607843137255"></ellipse></g>,<g transform="translate(937 102) rotate(95) scale(41 47)"><ellipse cx="0" cy="0" rx="1" ry="1" fill="rgb(25,32,85)" fill-opacity="0.5019607843137255"></ellipse></g>,<g transform="translate(621 145) rotate(133) scale(93 47)"><ellipse cx="0" cy="0" rx="1" ry="1" fill="rgb(22,104,218)" fill-opacity="0.5019607843137255"></ellipse></g>,<g transform="translate(49 250) rotate(336) scale(44 116)"><ellipse cx="0" cy="0" rx="1" ry="1" fill="rgb(255,22,63)" fill-opacity="0.5019607843137255"></ellipse></g>,<g transform="translate(787 228) rotate(51) scale(50 39)"><ellipse cx="0" cy="0" rx="1" ry="1" fill="rgb(7,50,208)" fill-opacity="0.5019607843137255"></ellipse></g>,<g transform="translate(429 146) rotate(339) scale(15 17)"><ellipse cx="0" cy="0" rx="1" ry="1" fill="rgb(121,75,144)" fill-opacity="0.5019607843137255"></ellipse></g>,<g transform="translate(544 340) rotate(167) scale(35 30)"><ellipse cx="0" cy="0" rx="1" ry="1" fill="rgb(230,122,194)" fill-opacity="0.5019607843137255"></ellipse></g>,<g transform="translate(721 16) rotate(173) scale(35 43)"><ellipse cx="0" cy="0" rx="1" ry="1" fill="rgb(11,14,68)" fill-opacity="0.5019607843137255"></ellipse></g>,<g transform="translate(639 360) rotate(243) scale(23 38)"><ellipse cx="0" cy="0" rx="1" ry="1" fill="rgb(255,117,223)" fill-opacity="0.5019607843137255"></ellipse></g>,<g transform="translate(354 263) rotate(54) scale(50 17)"><ellipse cx="0" cy="0" rx="1" ry="1" fill="rgb(255,113,75)" fill-opacity="0.5019607843137255"></ellipse></g>,<g transform="translate(260 177) rotate(278) scale(28 84)"><ellipse cx="0" cy="0" rx="1" ry="1" fill="rgb(255,96,63)" fill-opacity="0.5019607843137255"></ellipse></g>,<g transform="translate(312 28) rotate(80) scale(28 44)"><ellipse cx="0" cy="0" rx="1" ry="1" fill="rgb(234,69,115)" fill-opacity="0.5019607843137255"></ellipse></g>,<g transform="translate(417 15) rotate(203) scale(31 89)"><ellipse cx="0" cy="0" rx="1" ry="1" fill="rgb(255,205,105)" fill-opacity="0.5019607843137255"></ellipse></g>]</svg>