<!--?xml version="1.0" standalone="no"?-->
<svg xmlns="http://www.w3.org/2000/svg" version="1.2" baseProfile="tiny" width="960" height="540">
[<rect x="0" y="0" width="959" height="539" fill="rgb(110,61,113)" fill-opacity="1"></rect>,<g transform="translate(209 70) rotate(360) scale(273 347)"><ellipse cx="0" cy="0" rx="1" ry="1" fill="rgb(255,79,55)" fill-opacity="0.5019607843137255"></ellipse></g>,<g transform="translate(583 225) rotate(0) scale(194 170)"><ellipse cx="0" cy="0" rx="1" ry="1" fill="rgb(111,184,255)" fill-opacity="0.5019607843137255"></ellipse></g>,<g transform="translate(633 302) rotate(126) scale(88 71)"><ellipse cx="0" cy="0" rx="1" ry="1" fill="rgb(255,217,254)" fill-opacity="0.5019607843137255"></ellipse></g>,<g transform="translate(624 502) rotate(256) scale(136 539)"><ellipse cx="0" cy="0" rx="1" ry="1" fill="rgb(0,0,54)" fill-opacity="0.5019607843137255"></ellipse></g>,<g transform="translate(597 351) rotate(187) scale(94 44)"><ellipse cx="0" cy="0" rx="1" ry="1" fill="rgb(255,119,229)" fill-opacity="0.5019607843137255"></ellipse></g>,<g transform="translate(845 154) rotate(148) scale(169 282)"><ellipse cx="0" cy="0" rx="1" ry="1" fill="rgb(0,41,163)" fill-opacity="0.5019607843137255"></ellipse></g>,<g transform="translate(458 52) rotate(355) scale(150 90)"><ellipse cx="0" cy="0" rx="1" ry="1" fill="rgb(255,171,112)" fill-opacity="0.5019607843137255"></ellipse></g>,<g transform="translate(498 495) rotate(299) scale(118 179)"><ellipse cx="0" cy="0" rx="1" ry="1" fill="rgb(0,1,68)" fill-opacity="0.5019607843137255"></ellipse></g>,<g transform="translate(58 520) rotate(114) scale(108 245)"><ellipse cx="0" cy="0" rx="1" ry="1" fill="rgb(0,0,53)" fill-opacity="0.5019607843137255"></ellipse></g>,<g transform="translate(352 184) rotate(350) scale(64 110)"><ellipse cx="0" cy="0" rx="1" ry="1" fill="rgb(255,144,71)" fill-opacity="0.5019607843137255"></ellipse></g>,<g transform="translate(134 194) rotate(211) scale(223 152)"><ellipse cx="0" cy="0" rx="1" ry="1" fill="rgb(255,41,59)" fill-opacity="0.5019607843137255"></ellipse></g>,<g transform="translate(875 3) rotate(116) scale(60 441)"><ellipse cx="0" cy="0" rx="1" ry="1" fill="rgb(0,0,25)" fill-opacity="0.5019607843137255"></ellipse></g>,<g transform="translate(614 170) rotate(243) scale(65 220)"><ellipse cx="0" cy="0" rx="1" ry="1" fill="rgb(0,110,222)" fill-opacity="0.5019607843137255"></ellipse></g>,<g transform="translate(286 387) rotate(357) scale(60 99)"><ellipse cx="0" cy="0" rx="1" ry="1" fill="rgb(250,49,84)" fill-opacity="0.5019607843137255"></ellipse></g>,<g transform="translate(823 303) rotate(51) scale(56 290)"><ellipse cx="0" cy="0" rx="1" ry="1" fill="rgb(0,17,147)" fill-opacity="0.5019607843137255"></ellipse></g>,<g transform="translate(181 25) rotate(209) scale(175 68)"><ellipse cx="0" cy="0" rx="1" ry="1" fill="rgb(144,0,70)" fill-opacity="0.5019607843137255"></ellipse></g>,<g transform="translate(856 477) rotate(168) scale(111 171)"><ellipse cx="0" cy="0" rx="1" ry="1" fill="rgb(0,0,45)" fill-opacity="0.5019607843137255"></ellipse></g>,<g transform="translate(544 400) rotate(103) scale(27 130)"><ellipse cx="0" cy="0" rx="1" ry="1" fill="rgb(18,66,222)" fill-opacity="0.5019607843137255"></ellipse></g>,<g transform="translate(154 203) rotate(212) scale(164 114)"><ellipse cx="0" cy="0" rx="1" ry="1" fill="rgb(255,77,68)" fill-opacity="0.5019607843137255"></ellipse></g>,<g transform="translate(696 211) rotate(24) scale(58 26)"><ellipse cx="0" cy="0" rx="1" ry="1" fill="rgb(78,180,255)" fill-opacity="0.5019607843137255"></ellipse></g>,<g transform="translate(817 179) rotate(280) scale(90 117)"><ellipse cx="0" cy="0" rx="1" ry="1" fill="rgb(0,79,186)" fill-opacity="0.5019607843137255"></ellipse></g>,<g transform="translate(465 42) rotate(166) scale(124 69)"><ellipse cx="0" cy="0" rx="1" ry="1" fill="rgb(255,154,108)" fill-opacity="0.5019607843137255"></ellipse></g>,<g transform="translate(639 306) rotate(52) scale(78 64)"><ellipse cx="0" cy="0" rx="1" ry="1" fill="rgb(255,201,225)" fill-opacity="0.5019607843137255"></ellipse></g>,<g transform="translate(548 260) rotate(140) scale(123 34)"><ellipse cx="0" cy="0" rx="1" ry="1" fill="rgb(49,131,233)" fill-opacity="0.5019607843137255"></ellipse></g>,<g transform="translate(556 19) rotate(302) scale(53 54)"><ellipse cx="0" cy="0" rx="1" ry="1" fill="rgb(247,30,95)" fill-opacity="0.5019607843137255"></ellipse></g>,<g transform="translate(348 323) rotate(144) scale(23 86)"><ellipse cx="0" cy="0" rx="1" ry="1" fill="rgb(43,0,95)" fill-opacity="0.5019607843137255"></ellipse></g>,<g transform="translate(644 288) rotate(316) scale(60 38)"><ellipse cx="0" cy="0" rx="1" ry="1" fill="rgb(255,244,226)" fill-opacity="0.5019607843137255"></ellipse></g>,<g transform="translate(444 129) rotate(62) scale(29 44)"><ellipse cx="0" cy="0" rx="1" ry="1" fill="rgb(141,70,136)" fill-opacity="0.5019607843137255"></ellipse></g>,<g transform="translate(831 86) rotate(112) scale(58 174)"><ellipse cx="0" cy="0" rx="1" ry="1" fill="rgb(14,51,115)" fill-opacity="0.5019607843137255"></ellipse></g>,<g transform="translate(317 81) rotate(270) scale(150 29)"><ellipse cx="0" cy="0" rx="1" ry="1" fill="rgb(255,64,74)" fill-opacity="0.5019607843137255"></ellipse></g>,<g transform="translate(455 530) rotate(81) scale(73 189)"><ellipse cx="0" cy="0" rx="1" ry="1" fill="rgb(0,0,21)" fill-opacity="0.5019607843137255"></ellipse></g>,<g transform="translate(16 360) rotate(207) scale(91 57)"><ellipse cx="0" cy="0" rx="1" ry="1" fill="rgb(127,0,82)" fill-opacity="0.5019607843137255"></ellipse></g>,<g transform="translate(605 260) rotate(349) scale(29 35)"><ellipse cx="0" cy="0" rx="1" ry="1" fill="rgb(236,168,220)" fill-opacity="0.5019607843137255"></ellipse></g>,<g transform="translate(469 429) rotate(110) scale(42 87)"><ellipse cx="0" cy="0" rx="1" ry="1" fill="rgb(0,34,107)" fill-opacity="0.5019607843137255"></ellipse></g>,<g transform="translate(729 278) rotate(114) scale(57 30)"><ellipse cx="0" cy="0" rx="1" ry="1" fill="rgb(89,72,233)" fill-opacity="0.5019607843137255"></ellipse></g>,<g transform="translate(165 403) rotate(6) scale(71 56)"><ellipse cx="0" cy="0" rx="1" ry="1" fill="rgb(101,44,124)" fill-opacity="0.5019607843137255"></ellipse></g>,<g transform="translate(408 317) rotate(42) scale(56 19)"><ellipse cx="0" cy="0" rx="1" ry="1" fill="rgb(255,147,150)" fill-opacity="0.5019607843137255"></ellipse></g>,<g transform="translate(476 225) rotate(0) scale(42 92)"><ellipse cx="0" cy="0" rx="1" ry="1" fill="rgb(35,112,189)" fill-opacity="0.5019607843137255"></ellipse></g>,<g transform="translate(88 522) rotate(360) scale(115 64)"><ellipse cx="0" cy="0" rx="1" ry="1" fill="rgb(0,0,62)" fill-opacity="0.5019607843137255"></ellipse></g>,<g transform="translate(604 373) rotate(182) scale(80 26)"><ellipse cx="0" cy="0" rx="1" ry="1" fill="rgb(184,55,201)" fill-opacity="0.5019607843137255"></ellipse></g>,<g transform="translate(0 235) rotate(13) scale(91 73)"><ellipse cx="0" cy="0" rx="1" ry="1" fill="rgb(255,14,54)" fill-opacity="0.5019607843137255"></ellipse></g>,<g transform="translate(419 25) rotate(302) scale(114 34)"><ellipse cx="0" cy="0" rx="1" ry="1" fill="rgb(255,216,103)" fill-opacity="0.5019607843137255"></ellipse></g>,<g transform="translate(370 236) rotate(147) scale(34 56)"><ellipse cx="0" cy="0" rx="1" ry="1" fill="rgb(255,179,105)" fill-opacity="0.5019607843137255"></ellipse></g>,<g transform="translate(201 0) rotate(187) scale(75 39)"><ellipse cx="0" cy="0" rx="1" ry="1" fill="rgb(70,0,86)" fill-opacity="0.5019607843137255"></ellipse></g>,<g transform="translate(31 61) rotate(9) scale(58 73)"><ellipse cx="0" cy="0" rx="1" ry="1" fill="rgb(226,0,69)" fill-opacity="0.5019607843137255"></ellipse></g>,<g transform="translate(659 0) rotate(22) scale(32 33)"><ellipse cx="0" cy="0" rx="1" ry="1" fill="rgb(125,26,90)" fill-opacity="0.5019607843137255"></ellipse></g>,<g transform="translate(687 365) rotate(139) scale(70 14)"><ellipse cx="0" cy="0" rx="1" ry="1" fill="rgb(81,21,202)" fill-opacity="0.5019607843137255"></ellipse></g>,<g transform="translate(787 183) rotate(358) scale(50 71)"><ellipse cx="0" cy="0" rx="1" ry="1" fill="rgb(0,68,195)" fill-opacity="0.5019607843137255"></ellipse></g>,<g transform="translate(609 68) rotate(114) scale(33 34)"><ellipse cx="0" cy="0" rx="1" ry="1" fill="rgb(95,74,169)" fill-opacity="0.5019607843137255"></ellipse></g>,<g transform="translate(158 190) rotate(356) scale(100 51)"><ellipse cx="0" cy="0" rx="1" ry="1" fill="rgb(255,112,73)" fill-opacity="0.5019607843137255"></ellipse></g>,<g transform="translate(541 121) rotate(345) scale(28 28)"><ellipse cx="0" cy="0" rx="1" ry="1" fill="rgb(170,134,191)" fill-opacity="0.5019607843137255"></ellipse></g>,<g transform="translate(689 239) rotate(275) scale(32 20)"><ellipse cx="0" cy="0" rx="1" ry="1" fill="rgb(228,168,228)" fill-opacity="0.5019607843137255"></ellipse></g>,<g transform="translate(279 485) rotate(57) scale(26 71)"><ellipse cx="0" cy="0" rx="1" ry="1" fill="rgb(101,54,119)" fill-opacity="0.5019607843137255"></ellipse></g>,<g transform="translate(720 15) rotate(299) scale(34 32)"><ellipse cx="0" cy="0" rx="1" ry="1" fill="rgb(30,5,67)" fill-opacity="0.5019607843137255"></ellipse></g>,<g transform="translate(431 258) rotate(267) scale(65 26)"><ellipse cx="0" cy="0" rx="1" ry="1" fill="rgb(130,100,157)" fill-opacity="0.5019607843137255"></ellipse></g>,<g transform="translate(816 493) rotate(345) scale(210 105)"><ellipse cx="0" cy="0" rx="1" ry="1" fill="rgb(0,7,61)" fill-opacity="0.5019607843137255"></ellipse></g>,<g transform="translate(346 10) rotate(187) scale(37 47)"><ellipse cx="0" cy="0" rx="1" ry="1" fill="rgb(242,68,90)" fill-opacity="0.5019607843137255"></ellipse></g>,<g transform="translate(197 297) rotate(32) scale(119 42)"><ellipse cx="0" cy="0" rx="1" ry="1" fill="rgb(255,84,92)" fill-opacity="0.5019607843137255"></ellipse></g>,<g transform="translate(251 80) rotate(209) scale(27 29)"><ellipse cx="0" cy="0" rx="1" ry="1" fill="rgb(102,1,75)" fill-opacity="0.5019607843137255"></ellipse></g>,<g transform="translate(492 61) rotate(291) scale(42 61)"><ellipse cx="0" cy="0" rx="1" ry="1" fill="rgb(255,145,133)" fill-opacity="0.5019607843137255"></ellipse></g>,<g transform="translate(756 360) rotate(291) scale(138 35)"><ellipse cx="0" cy="0" rx="1" ry="1" fill="rgb(4,13,138)" fill-opacity="0.5019607843137255"></ellipse></g>,<g transform="translate(935 300) rotate(61) scale(88 87)"><ellipse cx="0" cy="0" rx="1" ry="1" fill="rgb(0,51,138)" fill-opacity="0.5019607843137255"></ellipse></g>,<g transform="translate(603 143) rotate(204) scale(36 59)"><ellipse cx="0" cy="0" rx="1" ry="1" fill="rgb(11,86,213)" fill-opacity="0.5019607843137255"></ellipse></g>,<g transform="translate(288 190) rotate(122) scale(29 68)"><ellipse cx="0" cy="0" rx="1" ry="1" fill="rgb(255,96,60)" fill-opacity="0.5019607843137255"></ellipse></g>,<g transform="translate(197 96) rotate(253) scale(59 27)"><ellipse cx="0" cy="0" rx="1" ry="1" fill="rgb(244,11,47)" fill-opacity="0.5019607843137255"></ellipse></g>,<g transform="translate(453 405) rotate(161) scale(28 29)"><ellipse cx="0" cy="0" rx="1" ry="1" fill="rgb(13,73,152)" fill-opacity="0.5019607843137255"></ellipse></g>,<g transform="translate(164 463) rotate(90) scale(42 62)"><ellipse cx="0" cy="0" rx="1" ry="1" fill="rgb(41,49,111)" fill-opacity="0.5019607843137255"></ellipse></g>,<g transform="translate(363 164) rotate(188) scale(55 39)"><ellipse cx="0" cy="0" rx="1" ry="1" fill="rgb(255,126,72)" fill-opacity="0.5019607843137255"></ellipse></g>,<g transform="translate(144 343) rotate(282) scale(34 103)"><ellipse cx="0" cy="0" rx="1" ry="1" fill="rgb(208,51,107)" fill-opacity="0.5019607843137255"></ellipse></g>,<g transform="translate(846 62) rotate(0) scale(71 30)"><ellipse cx="0" cy="0" rx="1" ry="1" fill="rgb(29,69,149)" fill-opacity="0.5019607843137255"></ellipse></g>,<g transform="translate(565 69) rotate(73) scale(40 29)"><ellipse cx="0" cy="0" rx="1" ry="1" fill="rgb(210,100,151)" fill-opacity="0.5019607843137255"></ellipse></g>,<g transform="translate(929 12) rotate(96) scale(24 124)"><ellipse cx="0" cy="0" rx="1" ry="1" fill="rgb(13,0,30)" fill-opacity="0.5019607843137255"></ellipse></g>,<g transform="translate(262 245) rotate(7) scale(38 37)"><ellipse cx="0" cy="0" rx="1" ry="1" fill="rgb(255,13,76)" fill-opacity="0.5019607843137255"></ellipse></g>,<g transform="translate(683 340) rotate(360) scale(20 26)"><ellipse cx="0" cy="0" rx="1" ry="1" fill="rgb(242,97,216)" fill-opacity="0.5019607843137255"></ellipse></g>,<g transform="translate(415 363) rotate(269) scale(15 24)"><ellipse cx="0" cy="0" rx="1" ry="1" fill="rgb(26,37,104)" fill-opacity="0.5019607843137255"></ellipse></g>,<g transform="translate(676 72) rotate(184) scale(18 29)"><ellipse cx="0" cy="0" rx="1" ry="1" fill="rgb(16,106,186)" fill-opacity="0.5019607843137255"></ellipse></g>,<g transform="translate(156 179) rotate(15) scale(40 12)"><ellipse cx="0" cy="0" rx="1" ry="1" fill="rgb(254,171,93)" fill-opacity="0.5019607843137255"></ellipse></g>,<g transform="translate(261 135) rotate(180) scale(57 12)"><ellipse cx="0" cy="0" rx="1" ry="1" fill="rgb(255,6,48)" fill-opacity="0.5019607843137255"></ellipse></g>,<g transform="translate(111 103) rotate(72) scale(49 36)"><ellipse cx="0" cy="0" rx="1" ry="1" fill="rgb(255,47,56)" fill-opacity="0.5019607843137255"></ellipse></g>,<g transform="translate(726 238) rotate(155) scale(28 18)"><ellipse cx="0" cy="0" rx="1" ry="1" fill="rgb(33,125,232)" fill-opacity="0.5019607843137255"></ellipse></g>,<g transform="translate(455 354) rotate(138) scale(15 23)"><ellipse cx="0" cy="0" rx="1" ry="1" fill="rgb(139,128,193)" fill-opacity="0.5019607843137255"></ellipse></g>,<g transform="translate(624 359) rotate(119) scale(24 33)"><ellipse cx="0" cy="0" rx="1" ry="1" fill="rgb(255,144,219)" fill-opacity="0.5019607843137255"></ellipse></g>,<g transform="translate(589 420) rotate(196) scale(41 32)"><ellipse cx="0" cy="0" rx="1" ry="1" fill="rgb(11,40,182)" fill-opacity="0.5019607843137255"></ellipse></g>,<g transform="translate(58 10) rotate(177) scale(89 45)"><ellipse cx="0" cy="0" rx="1" ry="1" fill="rgb(170,3,86)" fill-opacity="0.5019607843137255"></ellipse></g>,<g transform="translate(496 136) rotate(269) scale(21 20)"><ellipse cx="0" cy="0" rx="1" ry="1" fill="rgb(181,130,163)" fill-opacity="0.5019607843137255"></ellipse></g>,<g transform="translate(314 385) rotate(233) scale(29 51)"><ellipse cx="0" cy="0" rx="1" ry="1" fill="rgb(221,30,69)" fill-opacity="0.5019607843137255"></ellipse></g>,<g transform="translate(696 175) rotate(30) scale(77 34)"><ellipse cx="0" cy="0" rx="1" ry="1" fill="rgb(19,133,231)" fill-opacity="0.5019607843137255"></ellipse></g>,<g transform="translate(331 266) rotate(124) scale(11 59)"><ellipse cx="0" cy="0" rx="1" ry="1" fill="rgb(232,38,73)" fill-opacity="0.5019607843137255"></ellipse></g>,<g transform="translate(238 51) rotate(94) scale(19 37)"><ellipse cx="0" cy="0" rx="1" ry="1" fill="rgb(129,7,69)" fill-opacity="0.5019607843137255"></ellipse></g>,<g transform="translate(344 418) rotate(203) scale(8 80)"><ellipse cx="0" cy="0" rx="1" ry="1" fill="rgb(103,24,84)" fill-opacity="0.5019607843137255"></ellipse></g>,<g transform="translate(654 412) rotate(316) scale(45 22)"><ellipse cx="0" cy="0" rx="1" ry="1" fill="rgb(3,37,171)" fill-opacity="0.5019607843137255"></ellipse></g>,<g transform="translate(351 345) rotate(272) scale(26 30)"><ellipse cx="0" cy="0" rx="1" ry="1" fill="rgb(96,27,91)" fill-opacity="0.5019607843137255"></ellipse></g>,<g transform="translate(35 435) rotate(189) scale(91 48)"><ellipse cx="0" cy="0" rx="1" ry="1" fill="rgb(54,14,96)" fill-opacity="0.5019607843137255"></ellipse></g>,<g transform="translate(55 155) rotate(166) scale(55 83)"><ellipse cx="0" cy="0" rx="1" ry="1" fill="rgb(255,54,54)" fill-opacity="0.5019607843137255"></ellipse></g>,<g transform="translate(365 232) rotate(5) scale(27 25)"><ellipse cx="0" cy="0" rx="1" ry="1" fill="rgb(255,179,77)" fill-opacity="0.5019607843137255"></ellipse></g>,<g transform="translate(822 310) rotate(65) scale(32 59)"><ellipse cx="0" cy="0" rx="1" ry="1" fill="rgb(1,6,105)" fill-opacity="0.5019607843137255"></ellipse></g>,<g transform="translate(305 25) rotate(207) scale(42 30)"><ellipse cx="0" cy="0" rx="1" ry="1" fill="rgb(215,70,114)" fill-opacity="0.5019607843137255"></ellipse></g>,<g transform="translate(519 285) rotate(163) scale(21 21)"><ellipse cx="0" cy="0" rx="1" ry="1" fill="rgb(6,129,218)" fill-opacity="0.5019607843137255"></ellipse></g>,<g transform="translate(724 469) rotate(109) scale(45 45)"><ellipse cx="0" cy="0" rx="1" ry="1" fill="rgb(25,37,92)" fill-opacity="0.5019607843137255"></ellipse></g>,<g transform="translate(524 374) rotate(310) scale(9 35)"><ellipse cx="0" cy="0" rx="1" ry="1" fill="rgb(117,77,170)" fill-opacity="0.5019607843137255"></ellipse></g>,<g transform="translate(638 296) rotate(316) scale(44 46)"><ellipse cx="0" cy="0" rx="1" ry="1" fill="rgb(255,225,223)" fill-opacity="0.5019607843137255"></ellipse></g>,<g transform="translate(203 257) rotate(144) scale(72 43)"><ellipse cx="0" cy="0" rx="1" ry="1" fill="rgb(255,60,79)" fill-opacity="0.5019607843137255"></ellipse></g>,<g transform="translate(253 422) rotate(264) scale(73 31)"><ellipse cx="0" cy="0" rx="1" ry="1" fill="rgb(185,67,107)" fill-opacity="0.5019607843137255"></ellipse></g>,<g transform="translate(573 0) rotate(349) scale(57 25)"><ellipse cx="0" cy="0" rx="1" ry="1" fill="rgb(240,38,74)" fill-opacity="0.5019607843137255"></ellipse></g>,<g transform="translate(396 247) rotate(175) scale(19 38)"><ellipse cx="0" cy="0" rx="1" ry="1" fill="rgb(243,160,151)" fill-opacity="0.5019607843137255"></ellipse></g>,<g transform="translate(880 224) rotate(121) scale(16 21)"><ellipse cx="0" cy="0" rx="1" ry="1" fill="rgb(20,82,203)" fill-opacity="0.5019607843137255"></ellipse></g>,<g transform="translate(590 378) rotate(323) scale(16 40)"><ellipse cx="0" cy="0" rx="1" ry="1" fill="rgb(142,55,191)" fill-opacity="0.5019607843137255"></ellipse></g>,<g transform="translate(468 59) rotate(0) scale(53 21)"><ellipse cx="0" cy="0" rx="1" ry="1" fill="rgb(255,159,120)" fill-opacity="0.5019607843137255"></ellipse></g>,<g transform="translate(314 313) rotate(65) scale(82 10)"><ellipse cx="0" cy="0" rx="1" ry="1" fill="rgb(198,16,80)" fill-opacity="0.5019607843137255"></ellipse></g>,<g transform="translate(551 341) rotate(21) scale(24 26)"><ellipse cx="0" cy="0" rx="1" ry="1" fill="rgb(242,114,191)" fill-opacity="0.5019607843137255"></ellipse></g>,<g transform="translate(546 441) rotate(206) scale(82 19)"><ellipse cx="0" cy="0" rx="1" ry="1" fill="rgb(0,6,92)" fill-opacity="0.5019607843137255"></ellipse></g>,<g transform="translate(889 187) rotate(18) scale(112 23)"><ellipse cx="0" cy="0" rx="1" ry="1" fill="rgb(0,57,132)" fill-opacity="0.5019607843137255"></ellipse></g>,<g transform="translate(502 248) rotate(214) scale(30 58)"><ellipse cx="0" cy="0" rx="1" ry="1" fill="rgb(15,117,214)" fill-opacity="0.5019607843137255"></ellipse></g>,<g transform="translate(481 374) rotate(247) scale(20 8)"><ellipse cx="0" cy="0" rx="1" ry="1" fill="rgb(0,73,195)" fill-opacity="0.5019607843137255"></ellipse></g>,<g transform="translate(659 226) rotate(0) scale(51 17)"><ellipse cx="0" cy="0" rx="1" ry="1" fill="rgb(174,155,224)" fill-opacity="0.5019607843137255"></ellipse></g>,<g transform="translate(811 396) rotate(44) scale(35 52)"><ellipse cx="0" cy="0" rx="1" ry="1" fill="rgb(0,0,48)" fill-opacity="0.5019607843137255"></ellipse></g>,<g transform="translate(10 352) rotate(303) scale(42 51)"><ellipse cx="0" cy="0" rx="1" ry="1" fill="rgb(123,2,83)" fill-opacity="0.5019607843137255"></ellipse></g>,<g transform="translate(355 17) rotate(285) scale(22 11)"><ellipse cx="0" cy="0" rx="1" ry="1" fill="rgb(217,37,78)" fill-opacity="0.5019607843137255"></ellipse></g>,<g transform="translate(797 253) rotate(305) scale(44 29)"><ellipse cx="0" cy="0" rx="1" ry="1" fill="rgb(10,36,185)" fill-opacity="0.5019607843137255"></ellipse></g>,<g transform="translate(413 103) rotate(58) scale(22 21)"><ellipse cx="0" cy="0" rx="1" ry="1" fill="rgb(252,107,94)" fill-opacity="0.5019607843137255"></ellipse></g>,<g transform="translate(628 12) rotate(304) scale(38 24)"><ellipse cx="0" cy="0" rx="1" ry="1" fill="rgb(130,39,116)" fill-opacity="0.5019607843137255"></ellipse></g>,<g transform="translate(60 316) rotate(226) scale(53 20)"><ellipse cx="0" cy="0" rx="1" ry="1" fill="rgb(219,21,73)" fill-opacity="0.5019607843137255"></ellipse></g>,<g transform="translate(115 2) rotate(117) scale(19 90)"><ellipse cx="0" cy="0" rx="1" ry="1" fill="rgb(135,7,80)" fill-opacity="0.5019607843137255"></ellipse></g>,<g transform="translate(420 146) rotate(198) scale(14 33)"><ellipse cx="0" cy="0" rx="1" ry="1" fill="rgb(176,76,127)" fill-opacity="0.5019607843137255"></ellipse></g>,<g transform="translate(888 145) rotate(140) scale(18 46)"><ellipse cx="0" cy="0" rx="1" ry="1" fill="rgb(51,79,154)" fill-opacity="0.5019607843137255"></ellipse></g>,<g transform="translate(235 321) rotate(169) scale(40 32)"><ellipse cx="0" cy="0" rx="1" ry="1" fill="rgb(255,112,85)" fill-opacity="0.5019607843137255"></ellipse></g>,<g transform="translate(198 416) rotate(302) scale(20 34)"><ellipse cx="0" cy="0" rx="1" ry="1" fill="rgb(92,52,112)" fill-opacity="0.5019607843137255"></ellipse></g>,<g transform="translate(499 352) rotate(192) scale(11 21)"><ellipse cx="0" cy="0" rx="1" ry="1" fill="rgb(155,128,200)" fill-opacity="0.5019607843137255"></ellipse></g>,<g transform="translate(428 7) rotate(173) scale(48 33)"><ellipse cx="0" cy="0" rx="1" ry="1" fill="rgb(255,200,107)" fill-opacity="0.5019607843137255"></ellipse></g>,<g transform="translate(373 526) rotate(146) scale(67 30)"><ellipse cx="0" cy="0" rx="1" ry="1" fill="rgb(0,0,17)" fill-opacity="0.5019607843137255"></ellipse></g>,<g transform="translate(757 120) rotate(69) scale(41 35)"><ellipse cx="0" cy="0" rx="1" ry="1" fill="rgb(0,77,167)" fill-opacity="0.5019607843137255"></ellipse></g>,<g transform="translate(310 92) rotate(252) scale(40 24)"><ellipse cx="0" cy="0" rx="1" ry="1" fill="rgb(250,18,66)" fill-opacity="0.5019607843137255"></ellipse></g>,<g transform="translate(620 235) rotate(270) scale(11 14)"><ellipse cx="0" cy="0" rx="1" ry="1" fill="rgb(126,113,218)" fill-opacity="0.5019607843137255"></ellipse></g>,<g transform="translate(941 103) rotate(212) scale(61 32)"><ellipse cx="0" cy="0" rx="1" ry="1" fill="rgb(23,31,87)" fill-opacity="0.5019607843137255"></ellipse></g>,<g transform="translate(724 362) rotate(312) scale(136 16)"><ellipse cx="0" cy="0" rx="1" ry="1" fill="rgb(8,9,140)" fill-opacity="0.5019607843137255"></ellipse></g>,<g transform="translate(938 321) rotate(160) scale(23 46)"><ellipse cx="0" cy="0" rx="1" ry="1" fill="rgb(4,66,163)" fill-opacity="0.5019607843137255"></ellipse></g>,<g transform="translate(791 4) rotate(43) scale(38 23)"><ellipse cx="0" cy="0" rx="1" ry="1" fill="rgb(18,5,61)" fill-opacity="0.5019607843137255"></ellipse></g>,<g transform="translate(629 539) rotate(273) scale(29 91)"><ellipse cx="0" cy="0" rx="1" ry="1" fill="rgb(2,0,27)" fill-opacity="0.5019607843137255"></ellipse></g>,<g transform="translate(673 127) rotate(173) scale(26 47)"><ellipse cx="0" cy="0" rx="1" ry="1" fill="rgb(42,127,213)" fill-opacity="0.5019607843137255"></ellipse></g>,<g transform="translate(749 285) rotate(282) scale(27 15)"><ellipse cx="0" cy="0" rx="1" ry="1" fill="rgb(44,50,197)" fill-opacity="0.5019607843137255"></ellipse></g>,<g transform="translate(157 353) rotate(169) scale(21 40)"><ellipse cx="0" cy="0" rx="1" ry="1" fill="rgb(168,65,111)" fill-opacity="0.5019607843137255"></ellipse></g>,<g transform="translate(87 282) rotate(108) scale(31 53)"><ellipse cx="0" cy="0" rx="1" ry="1" fill="rgb(253,42,77)" fill-opacity="0.5019607843137255"></ellipse></g>,<g transform="translate(402 388) rotate(254) scale(26 32)"><ellipse cx="0" cy="0" rx="1" ry="1" fill="rgb(21,29,72)" fill-opacity="0.5019607843137255"></ellipse></g>,<g transform="translate(566 256) rotate(111) scale(49 22)"><ellipse cx="0" cy="0" rx="1" ry="1" fill="rgb(98,138,224)" fill-opacity="0.5019607843137255"></ellipse></g>,<g transform="translate(214 515) rotate(212) scale(80 26)"><ellipse cx="0" cy="0" rx="1" ry="1" fill="rgb(25,38,99)" fill-opacity="0.5019607843137255"></ellipse></g>,<g transform="translate(442 275) rotate(163) scale(34 13)"><ellipse cx="0" cy="0" rx="1" ry="1" fill="rgb(60,86,164)" fill-opacity="0.5019607843137255"></ellipse></g>,<g transform="translate(691 290) rotate(4) scale(8 45)"><ellipse cx="0" cy="0" rx="1" ry="1" fill="rgb(255,136,218)" fill-opacity="0.5019607843137255"></ellipse></g>,<g transform="translate(626 93) rotate(265) scale(20 32)"><ellipse cx="0" cy="0" rx="1" ry="1" fill="rgb(56,105,184)" fill-opacity="0.5019607843137255"></ellipse></g>,<g transform="translate(722 57) rotate(120) scale(20 32)"><ellipse cx="0" cy="0" rx="1" ry="1" fill="rgb(39,35,115)" fill-opacity="0.5019607843137255"></ellipse></g>,<g transform="translate(502 19) rotate(291) scale(25 28)"><ellipse cx="0" cy="0" rx="1" ry="1" fill="rgb(255,108,92)" fill-opacity="0.5019607843137255"></ellipse></g>,<g transform="translate(928 388) rotate(120) scale(19 118)"><ellipse cx="0" cy="0" rx="1" ry="1" fill="rgb(7,20,96)" fill-opacity="0.5019607843137255"></ellipse></g>,<g transform="translate(643 301) rotate(2) scale(25 21)"><ellipse cx="0" cy="0" rx="1" ry="1" fill="rgb(255,251,225)" fill-opacity="0.5019607843137255"></ellipse></g>,<g transform="translate(274 66) rotate(265) scale(19 28)"><ellipse cx="0" cy="0" rx="1" ry="1" fill="rgb(159,17,74)" fill-opacity="0.5019607843137255"></ellipse></g>,<g transform="translate(426 470) rotate(94) scale(25 46)"><ellipse cx="0" cy="0" rx="1" ry="1" fill="rgb(0,11,46)" fill-opacity="0.5019607843137255"></ellipse></g>,<g transform="translate(154 104) rotate(344) scale(30 21)"><ellipse cx="0" cy="0" rx="1" ry="1" fill="rgb(255,28,50)" fill-opacity="0.5019607843137255"></ellipse></g>,<g transform="translate(621 403) rotate(262) scale(9 36)"><ellipse cx="0" cy="0" rx="1" ry="1" fill="rgb(57,75,205)" fill-opacity="0.5019607843137255"></ellipse></g>,<g transform="translate(710 307) rotate(289) scale(46 9)"><ellipse cx="0" cy="0" rx="1" ry="1" fill="rgb(155,107,211)" fill-opacity="0.5019607843137255"></ellipse></g>,<g transform="translate(689 209) rotate(17) scale(22 10)"><ellipse cx="0" cy="0" rx="1" ry="1" fill="rgb(110,172,223)" fill-opacity="0.5019607843137255"></ellipse></g>,<g transform="translate(377 167) rotate(76) scale(52 18)"><ellipse cx="0" cy="0" rx="1" ry="1" fill="rgb(255,150,89)" fill-opacity="0.5019607843137255"></ellipse></g>,<g transform="translate(10 242) rotate(174) scale(33 58)"><ellipse cx="0" cy="0" rx="1" ry="1" fill="rgb(255,16,64)" fill-opacity="0.5019607843137255"></ellipse></g>,<g transform="translate(308 396) rotate(307) scale(14 33)"><ellipse cx="0" cy="0" rx="1" ry="1" fill="rgb(245,50,74)" fill-opacity="0.5019607843137255"></ellipse></g>,<g transform="translate(260 490) rotate(188) scale(29 22)"><ellipse cx="0" cy="0" rx="1" ry="1" fill="rgb(112,59,121)" fill-opacity="0.5019607843137255"></ellipse></g>,<g transform="translate(354 267) rotate(118) scale(21 15)"><ellipse cx="0" cy="0" rx="1" ry="1" fill="rgb(252,92,69)" fill-opacity="0.5019607843137255"></ellipse></g>,<g transform="translate(378 353) rotate(54) scale(22 14)"><ellipse cx="0" cy="0" rx="1" ry="1" fill="rgb(44,41,100)" fill-opacity="0.5019607843137255"></ellipse></g>,<g transform="translate(358 67) rotate(195) scale(21 29)"><ellipse cx="0" cy="0" rx="1" ry="1" fill="rgb(255,145,83)" fill-opacity="0.5019607843137255"></ellipse></g>,<g transform="translate(548 36) rotate(90) scale(24 25)"><ellipse cx="0" cy="0" rx="1" ry="1" fill="rgb(242,84,95)" fill-opacity="0.5019607843137255"></ellipse></g>,<g transform="translate(323 328) rotate(164) scale(12 36)"><ellipse cx="0" cy="0" rx="1" ry="1" fill="rgb(188,34,82)" fill-opacity="0.5019607843137255"></ellipse></g>,<g transform="translate(402 128) rotate(39) scale(12 23)"><ellipse cx="0" cy="0" rx="1" ry="1" fill="rgb(210,74,119)" fill-opacity="0.5019607843137255"></ellipse></g>,<g transform="translate(137 178) rotate(56) scale(21 30)"><ellipse cx="0" cy="0" rx="1" ry="1" fill="rgb(251,131,81)" fill-opacity="0.5019607843137255"></ellipse></g>,<g transform="translate(579 313) rotate(189) scale(19 21)"><ellipse cx="0" cy="0" rx="1" ry="1" fill="rgb(255,200,213)" fill-opacity="0.5019607843137255"></ellipse></g>,<g transform="translate(564 375) rotate(202) scale(18 16)"><ellipse cx="0" cy="0" rx="1" ry="1" fill="rgb(126,69,172)" fill-opacity="0.5019607843137255"></ellipse></g>,<g transform="translate(360 469) rotate(314) scale(36 33)"><ellipse cx="0" cy="0" rx="1" ry="1" fill="rgb(34,23,52)" fill-opacity="0.5019607843137255"></ellipse></g>,<g transform="translate(765 199) rotate(188) scale(28 32)"><ellipse cx="0" cy="0" rx="1" ry="1" fill="rgb(1,80,213)" fill-opacity="0.5019607843137255"></ellipse></g>,<g transform="translate(127 361) rotate(148) scale(29 29)"><ellipse cx="0" cy="0" rx="1" ry="1" fill="rgb(185,58,100)" fill-opacity="0.5019607843137255"></ellipse></g>,<g transform="translate(86 405) rotate(275) scale(20 46)"><ellipse cx="0" cy="0" rx="1" ry="1" fill="rgb(107,44,106)" fill-opacity="0.5019607843137255"></ellipse></g>,<g transform="translate(605 176) rotate(334) scale(73 32)"><ellipse cx="0" cy="0" rx="1" ry="1" fill="rgb(29,108,224)" fill-opacity="0.5019607843137255"></ellipse></g>,<g transform="translate(681 26) rotate(335) scale(27 17)"><ellipse cx="0" cy="0" rx="1" ry="1" fill="rgb(46,49,129)" fill-opacity="0.5019607843137255"></ellipse></g>,<g transform="translate(629 487) rotate(331) scale(13 49)"><ellipse cx="0" cy="0" rx="1" ry="1" fill="rgb(13,15,78)" fill-opacity="0.5019607843137255"></ellipse></g>,<g transform="translate(533 462) rotate(180) scale(35 22)"><ellipse cx="0" cy="0" rx="1" ry="1" fill="rgb(0,2,49)" fill-opacity="0.5019607843137255"></ellipse></g>,<g transform="translate(873 480) rotate(61) scale(70 99)"><ellipse cx="0" cy="0" rx="1" ry="1" fill="rgb(0,6,54)" fill-opacity="0.5019607843137255"></ellipse></g>,<g transform="translate(437 209) rotate(273) scale(46 11)"><ellipse cx="0" cy="0" rx="1" ry="1" fill="rgb(111,129,189)" fill-opacity="0.5019607843137255"></ellipse></g>,<g transform="translate(500 97) rotate(76) scale(24 33)"><ellipse cx="0" cy="0" rx="1" ry="1" fill="rgb(217,125,131)" fill-opacity="0.5019607843137255"></ellipse></g>,<g transform="translate(416 318) rotate(152) scale(17 34)"><ellipse cx="0" cy="0" rx="1" ry="1" fill="rgb(222,120,135)" fill-opacity="0.5019607843137255"></ellipse></g>,<g transform="translate(527 164) rotate(70) scale(16 36)"><ellipse cx="0" cy="0" rx="1" ry="1" fill="rgb(82,124,191)" fill-opacity="0.5019607843137255"></ellipse></g>,<g transform="translate(141 494) rotate(211) scale(93 26)"><ellipse cx="0" cy="0" rx="1" ry="1" fill="rgb(20,22,75)" fill-opacity="0.5019607843137255"></ellipse></g>,<g transform="translate(640 358) rotate(220) scale(12 19)"><ellipse cx="0" cy="0" rx="1" ry="1" fill="rgb(255,188,226)" fill-opacity="0.5019607843137255"></ellipse></g>,<g transform="translate(485 203) rotate(66) scale(34 28)"><ellipse cx="0" cy="0" rx="1" ry="1" fill="rgb(28,125,196)" fill-opacity="0.5019607843137255"></ellipse></g>,<g transform="translate(42 352) rotate(65) scale(22 20)"><ellipse cx="0" cy="0" rx="1" ry="1" fill="rgb(152,27,87)" fill-opacity="0.5019607843137255"></ellipse></g>,<g transform="translate(942 261) rotate(320) scale(26 62)"><ellipse cx="0" cy="0" rx="1" ry="1" fill="rgb(7,44,126)" fill-opacity="0.5019607843137255"></ellipse></g>,<g transform="translate(151 131) rotate(192) scale(95 22)"><ellipse cx="0" cy="0" rx="1" ry="1" fill="rgb(255,65,58)" fill-opacity="0.5019607843137255"></ellipse></g>,<g transform="translate(677 430) rotate(276) scale(10 16)"><ellipse cx="0" cy="0" rx="1" ry="1" fill="rgb(3,7,76)" fill-opacity="0.5019607843137255"></ellipse></g>,<g transform="translate(615 217) rotate(0) scale(27 11)"><ellipse cx="0" cy="0" rx="1" ry="1" fill="rgb(80,128,228)" fill-opacity="0.5019607843137255"></ellipse></g>,<g transform="translate(656 412) rotate(50) scale(9 32)"><ellipse cx="0" cy="0" rx="1" ry="1" fill="rgb(9,45,182)" fill-opacity="0.5019607843137255"></ellipse></g>,<g transform="translate(829 47) rotate(250) scale(12 14)"><ellipse cx="0" cy="0" rx="1" ry="1" fill="rgb(60,89,157)" fill-opacity="0.5019607843137255"></ellipse></g>,<g transform="translate(574 354) rotate(119) scale(15 15)"><ellipse cx="0" cy="0" rx="1" ry="1" fill="rgb(204,59,191)" fill-opacity="0.5019607843137255"></ellipse></g>,<g transform="translate(885 259) rotate(139) scale(19 26)"><ellipse cx="0" cy="0" rx="1" ry="1" fill="rgb(8,56,173)" fill-opacity="0.5019607843137255"></ellipse></g>,<g transform="translate(275 11) rotate(205) scale(13 16)"><ellipse cx="0" cy="0" rx="1" ry="1" fill="rgb(139,29,100)" fill-opacity="0.5019607843137255"></ellipse></g>,<g transform="translate(278 140) rotate(204) scale(11 19)"><ellipse cx="0" cy="0" rx="1" ry="1" fill="rgb(255,33,52)" fill-opacity="0.5019607843137255"></ellipse></g>,<g transform="translate(412 188) rotate(150) scale(14 20)"><ellipse cx="0" cy="0" rx="1" ry="1" fill="rgb(238,132,148)" fill-opacity="0.5019607843137255"></ellipse></g>,<g transform="translate(229 456) rotate(333) scale(22 12)"><ellipse cx="0" cy="0" rx="1" ry="1" fill="rgb(99,52,114)" fill-opacity="0.5019607843137255"></ellipse></g>,<g transform="translate(390 279) rotate(90) scale(12 18)"><ellipse cx="0" cy="0" rx="1" ry="1" fill="rgb(219,115,140)" fill-opacity="0.5019607843137255"></ellipse></g>,<g transform="translate(455 380) rotate(153) scale(18 17)"><ellipse cx="0" cy="0" rx="1" ry="1" fill="rgb(47,89,156)" fill-opacity="0.5019607843137255"></ellipse></g>,<g transform="translate(462 323) rotate(167) scale(29 11)"><ellipse cx="0" cy="0" rx="1" ry="1" fill="rgb(40,96,188)" fill-opacity="0.5019607843137255"></ellipse></g>,<g transform="translate(224 1) rotate(73) scale(14 44)"><ellipse cx="0" cy="0" rx="1" ry="1" fill="rgb(62,12,84)" fill-opacity="0.5019607843137255"></ellipse></g>,<g transform="translate(959 166) rotate(247) scale(59 29)"><ellipse cx="0" cy="0" rx="1" ry="1" fill="rgb(8,53,122)" fill-opacity="0.5019607843137255"></ellipse></g>,<g transform="translate(72 539) rotate(16) scale(89 40)"><ellipse cx="0" cy="0" rx="1" ry="1" fill="rgb(26,0,56)" fill-opacity="0.5019607843137255"></ellipse></g>,<g transform="translate(323 66) rotate(0) scale(10 26)"><ellipse cx="0" cy="0" rx="1" ry="1" fill="rgb(242,61,84)" fill-opacity="0.5019607843137255"></ellipse></g>,<g transform="translate(292 519) rotate(312) scale(24 17)"><ellipse cx="0" cy="0" rx="1" ry="1" fill="rgb(30,30,88)" fill-opacity="0.5019607843137255"></ellipse></g>,<g transform="translate(297 336) rotate(87) scale(56 17)"><ellipse cx="0" cy="0" rx="1" ry="1" fill="rgb(250,35,71)" fill-opacity="0.5019607843137255"></ellipse></g>,<g transform="translate(819 209) rotate(99) scale(48 32)"><ellipse cx="0" cy="0" rx="1" ry="1" fill="rgb(1,57,169)" fill-opacity="0.5019607843137255"></ellipse></g>,<g transform="translate(535 408) rotate(357) scale(28 10)"><ellipse cx="0" cy="0" rx="1" ry="1" fill="rgb(5,42,174)" fill-opacity="0.5019607843137255"></ellipse></g>,<g transform="translate(388 299) rotate(299) scale(11 14)"><ellipse cx="0" cy="0" rx="1" ry="1" fill="rgb(255,135,117)" fill-opacity="0.5019607843137255"></ellipse></g>,<g transform="translate(22 119) rotate(338) scale(53 33)"><ellipse cx="0" cy="0" rx="1" ry="1" fill="rgb(255,35,60)" fill-opacity="0.5019607843137255"></ellipse></g>,<g transform="translate(686 363) rotate(323) scale(46 8)"><ellipse cx="0" cy="0" rx="1" ry="1" fill="rgb(124,36,186)" fill-opacity="0.5019607843137255"></ellipse></g>,<g transform="translate(439 117) rotate(38) scale(13 16)"><ellipse cx="0" cy="0" rx="1" ry="1" fill="rgb(214,108,119)" fill-opacity="0.5019607843137255"></ellipse></g>,<g transform="translate(477 446) rotate(324) scale(17 32)"><ellipse cx="0" cy="0" rx="1" ry="1" fill="rgb(0,13,110)" fill-opacity="0.5019607843137255"></ellipse></g>,<g transform="translate(414 434) rotate(21) scale(27 21)"><ellipse cx="0" cy="0" rx="1" ry="1" fill="rgb(4,48,95)" fill-opacity="0.5019607843137255"></ellipse></g>,<g transform="translate(439 279) rotate(160) scale(18 28)"><ellipse cx="0" cy="0" rx="1" ry="1" fill="rgb(90,100,168)" fill-opacity="0.5019607843137255"></ellipse></g>,<g transform="translate(81 373) rotate(210) scale(22 17)"><ellipse cx="0" cy="0" rx="1" ry="1" fill="rgb(123,42,102)" fill-opacity="0.5019607843137255"></ellipse></g>,<g transform="translate(912 127) rotate(360) scale(45 13)"><ellipse cx="0" cy="0" rx="1" ry="1" fill="rgb(33,48,117)" fill-opacity="0.5019607843137255"></ellipse></g>,<g transform="translate(290 251) rotate(311) scale(23 12)"><ellipse cx="0" cy="0" rx="1" ry="1" fill="rgb(219,7,73)" fill-opacity="0.5019607843137255"></ellipse></g>,<g transform="translate(855 176) rotate(129) scale(16 28)"><ellipse cx="0" cy="0" rx="1" ry="1" fill="rgb(1,49,125)" fill-opacity="0.5019607843137255"></ellipse></g>,<g transform="translate(612 439) rotate(110) scale(21 17)"><ellipse cx="0" cy="0" rx="1" ry="1" fill="rgb(6,19,131)" fill-opacity="0.5019607843137255"></ellipse></g>,<g transform="translate(113 161) rotate(186) scale(13 37)"><ellipse cx="0" cy="0" rx="1" ry="1" fill="rgb(251,82,64)" fill-opacity="0.5019607843137255"></ellipse></g>,<g transform="translate(329 235) rotate(4) scale(16 9)"><ellipse cx="0" cy="0" rx="1" ry="1" fill="rgb(255,142,68)" fill-opacity="0.5019607843137255"></ellipse></g>,<g transform="translate(542 423) rotate(72) scale(11 21)"><ellipse cx="0" cy="0" rx="1" ry="1" fill="rgb(3,6,116)" fill-opacity="0.5019607843137255"></ellipse></g>,<g transform="translate(556 108) rotate(147) scale(50 11)"><ellipse cx="0" cy="0" rx="1" ry="1" fill="rgb(170,142,187)" fill-opacity="0.5019607843137255"></ellipse></g>,<g transform="translate(452 176) rotate(231) scale(24 17)"><ellipse cx="0" cy="0" rx="1" ry="1" fill="rgb(73,122,182)" fill-opacity="0.5019607843137255"></ellipse></g>,<g transform="translate(9 46) rotate(335) scale(60 37)"><ellipse cx="0" cy="0" rx="1" ry="1" fill="rgb(207,19,75)" fill-opacity="0.5019607843137255"></ellipse></g>,<g transform="translate(357 352) rotate(148) scale(32 8)"><ellipse cx="0" cy="0" rx="1" ry="1" fill="rgb(93,34,94)" fill-opacity="0.5019607843137255"></ellipse></g>,<g transform="translate(609 364) rotate(250) scale(18 18)"><ellipse cx="0" cy="0" rx="1" ry="1" fill="rgb(247,89,213)" fill-opacity="0.5019607843137255"></ellipse></g>,<g transform="translate(415 220) rotate(17) scale(8 34)"><ellipse cx="0" cy="0" rx="1" ry="1" fill="rgb(152,142,177)" fill-opacity="0.5019607843137255"></ellipse></g>,<g transform="translate(827 102) rotate(188) scale(30 26)"><ellipse cx="0" cy="0" rx="1" ry="1" fill="rgb(27,74,155)" fill-opacity="0.5019607843137255"></ellipse></g>,<g transform="translate(290 178) rotate(26) scale(14 26)"><ellipse cx="0" cy="0" rx="1" ry="1" fill="rgb(255,121,62)" fill-opacity="0.5019607843137255"></ellipse></g>,<g transform="translate(392 45) rotate(16) scale(11 19)"><ellipse cx="0" cy="0" rx="1" ry="1" fill="rgb(255,213,153)" fill-opacity="0.5019607843137255"></ellipse></g>,<g transform="translate(911 172) rotate(33) scale(23 38)"><ellipse cx="0" cy="0" rx="1" ry="1" fill="rgb(21,69,157)" fill-opacity="0.5019607843137255"></ellipse></g>,<g transform="translate(338 170) rotate(32) scale(38 19)"><ellipse cx="0" cy="0" rx="1" ry="1" fill="rgb(255,97,52)" fill-opacity="0.5019607843137255"></ellipse></g>,<g transform="translate(643 457) rotate(332) scale(12 15)"><ellipse cx="0" cy="0" rx="1" ry="1" fill="rgb(0,50,139)" fill-opacity="0.5019607843137255"></ellipse></g>,<g transform="translate(216 382) rotate(88) scale(12 26)"><ellipse cx="0" cy="0" rx="1" ry="1" fill="rgb(136,27,99)" fill-opacity="0.5019607843137255"></ellipse></g>,<g transform="translate(406 280) rotate(108) scale(13 7)"><ellipse cx="0" cy="0" rx="1" ry="1" fill="rgb(157,106,136)" fill-opacity="0.5019607843137255"></ellipse></g>,<g transform="translate(93 162) rotate(175) scale(31 34)"><ellipse cx="0" cy="0" rx="1" ry="1" fill="rgb(252,82,64)" fill-opacity="0.5019607843137255"></ellipse></g>,<g transform="translate(346 313) rotate(152) scale(12 34)"><ellipse cx="0" cy="0" rx="1" ry="1" fill="rgb(59,20,94)" fill-opacity="0.5019607843137255"></ellipse></g>,<g transform="translate(462 519) rotate(170) scale(47 35)"><ellipse cx="0" cy="0" rx="1" ry="1" fill="rgb(0,0,46)" fill-opacity="0.5019607843137255"></ellipse></g>,<g transform="translate(392 331) rotate(208) scale(19 10)"><ellipse cx="0" cy="0" rx="1" ry="1" fill="rgb(192,49,103)" fill-opacity="0.5019607843137255"></ellipse></g>,<g transform="translate(874 333) rotate(176) scale(29 31)"><ellipse cx="0" cy="0" rx="1" ry="1" fill="rgb(10,27,118)" fill-opacity="0.5019607843137255"></ellipse></g>,<g transform="translate(691 4) rotate(178) scale(19 10)"><ellipse cx="0" cy="0" rx="1" ry="1" fill="rgb(78,28,99)" fill-opacity="0.5019607843137255"></ellipse></g>,<g transform="translate(157 62) rotate(88) scale(24 29)"><ellipse cx="0" cy="0" rx="1" ry="1" fill="rgb(180,21,72)" fill-opacity="0.5019607843137255"></ellipse></g>,<g transform="translate(254 83) rotate(83) scale(18 12)"><ellipse cx="0" cy="0" rx="1" ry="1" fill="rgb(83,18,84)" fill-opacity="0.5019607843137255"></ellipse></g>,<g transform="translate(319 19) rotate(209) scale(16 31)"><ellipse cx="0" cy="0" rx="1" ry="1" fill="rgb(233,95,106)" fill-opacity="0.5019607843137255"></ellipse></g>,<g transform="translate(878 394) rotate(7) scale(44 37)"><ellipse cx="0" cy="0" rx="1" ry="1" fill="rgb(5,12,75)" fill-opacity="0.5019607843137255"></ellipse></g>,<g transform="translate(768 232) rotate(47) scale(21 15)"><ellipse cx="0" cy="0" rx="1" ry="1" fill="rgb(35,61,216)" fill-opacity="0.5019607843137255"></ellipse></g>,<g transform="translate(529 497) rotate(180) scale(74 37)"><ellipse cx="0" cy="0" rx="1" ry="1" fill="rgb(0,3,57)" fill-opacity="0.5019607843137255"></ellipse></g>,<g transform="translate(383 405) rotate(22) scale(13 46)"><ellipse cx="0" cy="0" rx="1" ry="1" fill="rgb(46,45,100)" fill-opacity="0.5019607843137255"></ellipse></g>,<g transform="translate(27 469) rotate(194) scale(55 36)"><ellipse cx="0" cy="0" rx="1" ry="1" fill="rgb(39,10,79)" fill-opacity="0.5019607843137255"></ellipse></g>,<g transform="translate(775 168) rotate(264) scale(16 31)"><ellipse cx="0" cy="0" rx="1" ry="1" fill="rgb(0,85,184)" fill-opacity="0.5019607843137255"></ellipse></g>,<g transform="translate(465 256) rotate(80) scale(34 15)"><ellipse cx="0" cy="0" rx="1" ry="1" fill="rgb(28,89,180)" fill-opacity="0.5019607843137255"></ellipse></g>,<g transform="translate(719 280) rotate(178) scale(27 8)"><ellipse cx="0" cy="0" rx="1" ry="1" fill="rgb(90,88,213)" fill-opacity="0.5019607843137255"></ellipse></g>,<g transform="translate(754 450) rotate(204) scale(22 40)"><ellipse cx="0" cy="0" rx="1" ry="1" fill="rgb(17,26,94)" fill-opacity="0.5019607843137255"></ellipse></g>,<g transform="translate(682 178) rotate(271) scale(22 22)"><ellipse cx="0" cy="0" rx="1" ry="1" fill="rgb(28,149,218)" fill-opacity="0.5019607843137255"></ellipse></g>,<g transform="translate(288 166) rotate(120) scale(9 11)"><ellipse cx="0" cy="0" rx="1" ry="1" fill="rgb(255,46,44)" fill-opacity="0.5019607843137255"></ellipse></g>,<g transform="translate(466 146) rotate(164) scale(36 18)"><ellipse cx="0" cy="0" rx="1" ry="1" fill="rgb(123,115,165)" fill-opacity="0.5019607843137255"></ellipse></g>,<g transform="translate(151 418) rotate(162) scale(23 40)"><ellipse cx="0" cy="0" rx="1" ry="1" fill="rgb(114,65,117)" fill-opacity="0.5019607843137255"></ellipse></g>,<g transform="translate(717 162) rotate(153) scale(21 59)"><ellipse cx="0" cy="0" rx="1" ry="1" fill="rgb(3,107,211)" fill-opacity="0.5019607843137255"></ellipse></g>,<g transform="translate(498 296) rotate(321) scale(14 10)"><ellipse cx="0" cy="0" rx="1" ry="1" fill="rgb(75,148,216)" fill-opacity="0.5019607843137255"></ellipse></g>,<g transform="translate(726 101) rotate(113) scale(15 39)"><ellipse cx="0" cy="0" rx="1" ry="1" fill="rgb(6,70,171)" fill-opacity="0.5019607843137255"></ellipse></g>]</svg>